<svg width="84" height="84" viewBox="0 0 84 84" fill="none" xmlns="http://www.w3.org/2000/svg">
<g filter="url(#filter0_b_147_1477)">
<mask id="path-1-inside-1_147_1477" fill="white">
<path fill-rule="evenodd" clip-rule="evenodd" d="M45.3846 48.9999C50.1428 48.9999 54 45.2391 54 40.5999C54 35.9607 50.1428 32.1999 45.3846 32.1999C45.3481 32.1999 45.3115 32.2001 45.275 32.2006C44.3633 24.7647 37.8721 19 30 19C22.1279 19 15.6367 24.7647 14.7249 32.2006C14.6885 32.2001 14.652 32.1999 14.6154 32.1999C9.85724 32.1999 6 35.9607 6 40.5999C6 45.2391 9.85724 48.9999 14.6154 48.9999L14.6154 49H29.9706C29.9804 49 29.9902 49 30 49C30.0098 49 30.0196 49 30.0293 49H45.3846L45.3846 48.9999Z"/>
</mask>
<path fill-rule="evenodd" clip-rule="evenodd" d="M45.3846 48.9999C50.1428 48.9999 54 45.2391 54 40.5999C54 35.9607 50.1428 32.1999 45.3846 32.1999C45.3481 32.1999 45.3115 32.2001 45.275 32.2006C44.3633 24.7647 37.8721 19 30 19C22.1279 19 15.6367 24.7647 14.7249 32.2006C14.6885 32.2001 14.652 32.1999 14.6154 32.1999C9.85724 32.1999 6 35.9607 6 40.5999C6 45.2391 9.85724 48.9999 14.6154 48.9999L14.6154 49H29.9706C29.9804 49 29.9902 49 30 49C30.0098 49 30.0196 49 30.0293 49H45.3846L45.3846 48.9999Z" fill="url(#paint0_linear_147_1477)"/>
<path d="M45.3846 48.9999V46.9999H43.8861L43.4652 48.4381L45.3846 48.9999ZM45.275 32.2006L43.2899 32.444L43.508 34.2222L45.2994 34.2004L45.275 32.2006ZM14.7249 32.2006L14.7006 34.2004L16.492 34.2222L16.7101 32.444L14.7249 32.2006ZM14.6154 48.9999L16.6148 48.9511L16.5672 46.9999H14.6154V48.9999ZM14.6154 49L12.616 49.0487L12.6636 51H14.6154V49ZM29.9706 49L29.9742 47H29.9706V49ZM30.0293 49V47L30.0258 47L30.0293 49ZM45.3846 49V51H46.8832L47.3041 49.5618L45.3846 49ZM52 40.5999C52 44.0871 49.0863 46.9999 45.3846 46.9999V50.9999C51.1993 50.9999 56 46.3911 56 40.5999H52ZM45.3846 34.1999C49.0863 34.1999 52 37.1127 52 40.5999H56C56 34.8087 51.1993 30.1999 45.3846 30.1999V34.1999ZM45.2994 34.2004C45.3278 34.2001 45.3562 34.1999 45.3846 34.1999V30.1999C45.3399 30.1999 45.2953 30.2002 45.2507 30.2007L45.2994 34.2004ZM30 21C36.889 21 42.5044 26.038 43.2899 32.444L47.2602 31.9571C46.2221 23.4914 38.8552 17 30 17V21ZM16.7101 32.444C17.4956 26.038 23.111 21 30 21V17C21.1448 17 13.7779 23.4914 12.7398 31.9571L16.7101 32.444ZM14.6154 34.1999C14.6438 34.1999 14.6722 34.2001 14.7006 34.2004L14.7493 30.2007C14.7047 30.2002 14.6601 30.1999 14.6154 30.1999V34.1999ZM8 40.5999C8 37.1127 10.9138 34.1999 14.6154 34.1999V30.1999C8.80071 30.1999 4 34.8087 4 40.5999H8ZM14.6154 46.9999C10.9138 46.9999 8 44.0871 8 40.5999H4C4 46.3911 8.80071 50.9999 14.6154 50.9999V46.9999ZM16.6148 48.9512L16.6148 48.9511L12.616 49.0487L12.616 49.0487L16.6148 48.9512ZM29.9706 47H14.6154V51H29.9706V47ZM30 47C29.9915 47 29.9829 47 29.9742 47L29.9671 51C29.978 51 29.9889 51 30 51V47ZM30.0258 47C30.0171 47 30.0085 47 30 47V51C30.0111 51 30.022 51 30.0328 51L30.0258 47ZM45.3846 47H30.0293V51H45.3846V47ZM43.4652 48.4381L43.4651 48.4382L47.3041 49.5618L47.3041 49.5617L43.4652 48.4381Z" fill="url(#paint1_linear_147_1477)" mask="url(#path-1-inside-1_147_1477)"/>
</g>
<g filter="url(#filter1_bd_147_1477)">
<mask id="path-3-inside-2_147_1477" fill="white">
<path fill-rule="evenodd" clip-rule="evenodd" d="M27.9487 64.9999C21.9019 64.9999 17 60.2362 17 54.3599C17 48.4836 21.9019 43.7199 27.9487 43.7199C28.0123 43.7199 28.0758 43.7205 28.1391 43.7215C29.2975 34.3023 37.5469 27 47.5513 27C57.5553 27 65.8044 34.3017 66.9633 43.7203C66.9926 43.7201 67.0219 43.72 67.0513 43.72C73.0981 43.72 78 48.4837 78 54.36C78 60.2363 73.0981 65 67.0513 65C67.0513 65 67.0513 65 67.0513 65V65H27.9487L27.9487 64.9999Z"/>
</mask>
<path fill-rule="evenodd" clip-rule="evenodd" d="M27.9487 64.9999C21.9019 64.9999 17 60.2362 17 54.3599C17 48.4836 21.9019 43.7199 27.9487 43.7199C28.0123 43.7199 28.0758 43.7205 28.1391 43.7215C29.2975 34.3023 37.5469 27 47.5513 27C57.5553 27 65.8044 34.3017 66.9633 43.7203C66.9926 43.7201 67.0219 43.72 67.0513 43.72C73.0981 43.72 78 48.4837 78 54.36C78 60.2363 73.0981 65 67.0513 65C67.0513 65 67.0513 65 67.0513 65V65H27.9487L27.9487 64.9999Z" fill="url(#paint2_linear_147_1477)" fill-opacity="0.7" shape-rendering="crispEdges"/>
<path d="M27.9487 64.9999L29.938 65.2071L30.1679 62.9999H27.9487V64.9999ZM28.1391 43.7215L28.106 45.7212L29.9046 45.751L30.1242 43.9656L28.1391 43.7215ZM66.9633 43.7203L64.9782 43.9646L65.196 45.7339L66.9786 45.7202L66.9633 43.7203ZM67.0513 65V63H65.0513V65H67.0513ZM67.0513 65V67H69.0513V65H67.0513ZM27.9487 65L25.9595 64.7928L25.7296 67H27.9487V65ZM27.9487 62.9999C22.9522 62.9999 19 59.0781 19 54.3599H15C15 61.3944 20.8516 66.9999 27.9487 66.9999V62.9999ZM19 54.3599C19 49.6417 22.9522 45.7199 27.9487 45.7199V41.7199C20.8516 41.7199 15 47.3255 15 54.3599H19ZM27.9487 45.7199C28.0012 45.7199 28.0536 45.7204 28.106 45.7212L28.1723 41.7218C28.0979 41.7206 28.0234 41.7199 27.9487 41.7199V45.7199ZM30.1242 43.9656C31.1553 35.581 38.5245 29 47.5513 29V25C36.5692 25 27.4397 33.0237 26.1541 43.4774L30.1242 43.9656ZM47.5513 29C56.5777 29 63.9466 35.5804 64.9782 43.9646L68.9483 43.4761C67.6621 33.023 58.5329 25 47.5513 25V29ZM66.9786 45.7202C67.0028 45.7201 67.0271 45.72 67.0513 45.72V41.72C67.0168 41.72 66.9824 41.7201 66.9479 41.7204L66.9786 45.7202ZM67.0513 45.72C72.0479 45.72 76 49.6418 76 54.36H80C80 47.3256 74.1484 41.72 67.0513 41.72V45.72ZM76 54.36C76 59.0782 72.0479 63 67.0513 63V67C74.1484 67 80 61.3944 80 54.36H76ZM67.0513 63C67.0513 63 67.0513 63 67.0513 63C67.0513 63 67.0513 63 67.0513 63H67.0513H67.0513C67.0513 63 67.0513 63 67.0513 63C67.0513 63 67.0513 63 67.0513 63C67.0513 63 67.0513 63 67.0513 63C67.0513 63 67.0513 63 67.0513 63H67.0513H67.0513C67.0513 63 67.0513 63 67.0513 63C67.0513 63 67.0513 63 67.0513 63V67C67.0513 67 67.0513 67 67.0513 67C67.0513 67 67.0513 67 67.0513 67H67.0513H67.0513C67.0513 67 67.0513 67 67.0513 67C67.0513 67 67.0513 67 67.0513 67C67.0513 67 67.0513 67 67.0513 67C67.0513 67 67.0513 67 67.0513 67H67.0513H67.0513C67.0513 67 67.0513 67 67.0513 67C67.0513 67 67.0513 67 67.0513 67V63ZM65.0513 65V65H69.0513V65H65.0513ZM67.0513 63H27.9487V67H67.0513V63ZM29.9379 65.2072L29.938 65.2071L25.9595 64.7927L25.9595 64.7928L29.9379 65.2072Z" fill="url(#paint3_linear_147_1477)" mask="url(#path-3-inside-2_147_1477)"/>
</g>
<defs>
<filter id="filter0_b_147_1477" x="3.48414" y="16.4841" width="53.0317" height="35.0317" filterUnits="userSpaceOnUse" color-interpolation-filters="sRGB">
<feFlood flood-opacity="0" result="BackgroundImageFix"/>
<feGaussianBlur in="BackgroundImageFix" stdDeviation="1.25793"/>
<feComposite in2="SourceAlpha" operator="in" result="effect1_backgroundBlur_147_1477"/>
<feBlend mode="normal" in="SourceGraphic" in2="effect1_backgroundBlur_147_1477" result="shape"/>
</filter>
<filter id="filter1_bd_147_1477" x="9" y="23" width="72.5" height="48" filterUnits="userSpaceOnUse" color-interpolation-filters="sRGB">
<feFlood flood-opacity="0" result="BackgroundImageFix"/>
<feGaussianBlur in="BackgroundImageFix" stdDeviation="1.75"/>
<feComposite in2="SourceAlpha" operator="in" result="effect1_backgroundBlur_147_1477"/>
<feColorMatrix in="SourceAlpha" type="matrix" values="0 0 0 0 0 0 0 0 0 0 0 0 0 0 0 0 0 0 127 0" result="hardAlpha"/>
<feOffset dx="-3" dy="1"/>
<feGaussianBlur stdDeviation="2.5"/>
<feComposite in2="hardAlpha" operator="out"/>
<feColorMatrix type="matrix" values="0 0 0 0 0.452751 0 0 0 0 0.452751 0 0 0 0 0.452751 0 0 0 0.2 0"/>
<feBlend mode="normal" in2="effect1_backgroundBlur_147_1477" result="effect2_dropShadow_147_1477"/>
<feBlend mode="normal" in="SourceGraphic" in2="effect2_dropShadow_147_1477" result="shape"/>
</filter>
<linearGradient id="paint0_linear_147_1477" x1="20.5" y1="21.5" x2="46.3029" y2="51.1075" gradientUnits="userSpaceOnUse">
<stop stop-color="#007ADF" stop-opacity="0.8"/>
<stop offset="1" stop-color="#007ADF"/>
</linearGradient>
<linearGradient id="paint1_linear_147_1477" x1="30" y1="19" x2="30" y2="49" gradientUnits="userSpaceOnUse">
<stop stop-color="white" stop-opacity="0.1"/>
<stop offset="0.51" stop-color="white" stop-opacity="0.1"/>
<stop offset="1" stop-opacity="0.01"/>
</linearGradient>
<linearGradient id="paint2_linear_147_1477" x1="37" y1="32" x2="66.6013" y2="65.7873" gradientUnits="userSpaceOnUse">
<stop stop-color="#00B7E0"/>
<stop offset="1" stop-color="#48BED9" stop-opacity="0.7"/>
</linearGradient>
<linearGradient id="paint3_linear_147_1477" x1="47.5" y1="27" x2="47.5" y2="65" gradientUnits="userSpaceOnUse">
<stop stop-color="white" stop-opacity="0.1"/>
<stop offset="0.51" stop-color="white" stop-opacity="0.1"/>
<stop offset="1" stop-opacity="0.01"/>
</linearGradient>
</defs>
</svg>
