<svg width="84" height="84" viewBox="0 0 84 84" fill="none" xmlns="http://www.w3.org/2000/svg">
<circle cx="25" cy="32" r="18" fill="url(#paint0_linear_151_900)" stroke="url(#paint1_linear_151_900)" stroke-width="2"/>
<g filter="url(#filter0_bd_151_900)">
<mask id="path-2-inside-1_151_900" fill="white">
<path fill-rule="evenodd" clip-rule="evenodd" d="M21.3847 71C21.3847 71 21.3846 71 21.3846 71C14.5448 71 9 65.6095 9 58.96C9 52.3105 14.5448 46.92 21.3846 46.92C21.4565 46.92 21.5283 46.9206 21.5999 46.9218C22.9102 36.2632 32.2414 28 43.5579 28C54.8739 28 64.2048 36.2625 65.5158 46.9203C65.5489 46.92 65.5821 46.9199 65.6153 46.9199C72.4552 46.9199 78 52.3104 78 58.9599C78 65.6094 72.4552 70.9998 65.6155 70.9999V71H43.581C43.5733 71 43.5656 71 43.5579 71C43.5502 71 43.5425 71 43.5349 71H21.3847Z"/>
</mask>
<path fill-rule="evenodd" clip-rule="evenodd" d="M21.3847 71C21.3847 71 21.3846 71 21.3846 71C14.5448 71 9 65.6095 9 58.96C9 52.3105 14.5448 46.92 21.3846 46.92C21.4565 46.92 21.5283 46.9206 21.5999 46.9218C22.9102 36.2632 32.2414 28 43.5579 28C54.8739 28 64.2048 36.2625 65.5158 46.9203C65.5489 46.92 65.5821 46.9199 65.6153 46.9199C72.4552 46.9199 78 52.3104 78 58.9599C78 65.6094 72.4552 70.9998 65.6155 70.9999V71H43.581C43.5733 71 43.5656 71 43.5579 71C43.5502 71 43.5425 71 43.5349 71H21.3847Z" fill="url(#paint2_linear_151_900)" fill-opacity="0.7" shape-rendering="crispEdges"/>
<path d="M21.5999 46.9218L21.5668 48.9215L23.3655 48.9513L23.585 47.1658L21.5999 46.9218ZM65.5158 46.9203L63.5307 47.1645L63.7484 48.9339L65.5311 48.9202L65.5158 46.9203ZM65.6155 70.9999L65.6155 68.9999L63.6155 68.9999V70.9999H65.6155ZM65.6155 71V73H67.6155V71H65.6155ZM43.581 71V69H43.579L43.581 71ZM43.5349 71L43.5368 69H43.5349V71ZM21.3847 69C21.5588 69 21.7096 69.0227 21.8298 69.0501C21.89 69.0639 21.9439 69.0791 21.9907 69.094C22.0374 69.1089 22.0786 69.1239 22.1135 69.1375C22.1483 69.1511 22.1784 69.164 22.2029 69.175C22.2274 69.186 22.248 69.1958 22.2634 69.2034C22.2788 69.2109 22.2911 69.2172 22.2984 69.2209C22.3021 69.2228 22.3051 69.2244 22.3069 69.2253C22.3086 69.2262 22.31 69.2269 22.3098 69.2268C22.3098 69.2268 22.3098 69.2268 22.3098 69.2268C22.3098 69.2268 22.3098 69.2268 22.3097 69.2268C22.3097 69.2268 22.3097 69.2267 22.3096 69.2267C22.3095 69.2267 22.3093 69.2266 22.3091 69.2264C22.3086 69.2262 22.3079 69.2258 22.3069 69.2253C22.3051 69.2244 22.3021 69.2228 22.2984 69.2209C22.2911 69.2172 22.2788 69.2109 22.2634 69.2034C22.2479 69.1958 22.2274 69.186 22.2029 69.175C22.1784 69.164 22.1483 69.1511 22.1134 69.1375C22.0786 69.1238 22.0374 69.1089 21.9906 69.094C21.9438 69.0791 21.8899 69.0639 21.8297 69.0501C21.7095 69.0227 21.5587 69 21.3846 69V73C21.2105 73 21.0597 72.9772 20.9396 72.9498C20.8793 72.9361 20.8255 72.9208 20.7787 72.906C20.7319 72.8911 20.6907 72.8761 20.6558 72.8625C20.621 72.8488 20.5909 72.8359 20.5664 72.8249C20.5419 72.814 20.5213 72.8041 20.5059 72.7966C20.4905 72.7891 20.4782 72.7828 20.4709 72.7791C20.4672 72.7771 20.4642 72.7756 20.4624 72.7746C20.4607 72.7738 20.4593 72.773 20.4595 72.7731C20.4595 72.7731 20.4595 72.7732 20.4595 72.7732C20.4595 72.7732 20.4596 72.7732 20.4596 72.7732C20.4596 72.7732 20.4596 72.7732 20.4597 72.7732C20.4598 72.7733 20.46 72.7734 20.4602 72.7735C20.4607 72.7738 20.4614 72.7741 20.4624 72.7746C20.4642 72.7756 20.4672 72.7771 20.4709 72.7791C20.4782 72.7828 20.4905 72.7891 20.5059 72.7966C20.5214 72.8041 20.5419 72.814 20.5664 72.8249C20.5909 72.8359 20.621 72.8488 20.6559 72.8625C20.6907 72.8761 20.7319 72.8911 20.7787 72.906C20.8255 72.9209 20.8794 72.9361 20.9396 72.9498C21.0598 72.9773 21.2106 73 21.3847 73V69ZM21.3846 69C15.5958 69 11 64.4521 11 58.96H7C7 66.7669 13.4938 73 21.3846 73V69ZM11 58.96C11 53.4679 15.5958 48.92 21.3846 48.92V44.92C13.4938 44.92 7 51.1531 7 58.96H11ZM21.3846 48.92C21.4454 48.92 21.5061 48.9205 21.5668 48.9215L21.633 44.922C21.5504 44.9207 21.4676 44.92 21.3846 44.92V48.92ZM23.585 47.1658C24.7681 37.5412 33.2197 30 43.5579 30V26C31.2631 26 21.0522 34.9852 19.6148 46.6777L23.585 47.1658ZM43.5579 30C53.8956 30 62.347 37.5405 63.5307 47.1645L67.5008 46.6761C66.0627 34.9844 55.8521 26 43.5579 26V30ZM65.5311 48.9202C65.5592 48.92 65.5872 48.9199 65.6153 48.9199V44.9199C65.577 44.9199 65.5387 44.9201 65.5005 44.9204L65.5311 48.9202ZM65.6153 48.9199C71.4042 48.9199 76 53.4678 76 58.9599H80C80 51.153 73.5062 44.9199 65.6153 44.9199V48.9199ZM76 58.9599C76 64.452 71.4042 68.9999 65.6155 68.9999L65.6155 72.9999C73.5062 72.9998 80 66.7668 80 58.9599H76ZM63.6155 70.9999V71H67.6155V70.9999H63.6155ZM65.6155 69H43.581V73H65.6155V69ZM43.579 69C43.572 69 43.565 69 43.5579 69V73C43.5663 73 43.5746 73 43.583 73L43.579 69ZM43.5579 69C43.5509 69 43.5439 69 43.5368 69L43.5329 73C43.5412 73 43.5496 73 43.5579 73V69ZM43.5349 69H21.3847V73H43.5349V69Z" fill="url(#paint3_linear_151_900)" mask="url(#path-2-inside-1_151_900)"/>
</g>
<defs>
<filter id="filter0_bd_151_900" x="1" y="24" width="80.5" height="53" filterUnits="userSpaceOnUse" color-interpolation-filters="sRGB">
<feFlood flood-opacity="0" result="BackgroundImageFix"/>
<feGaussianBlur in="BackgroundImageFix" stdDeviation="1.75"/>
<feComposite in2="SourceAlpha" operator="in" result="effect1_backgroundBlur_151_900"/>
<feColorMatrix in="SourceAlpha" type="matrix" values="0 0 0 0 0 0 0 0 0 0 0 0 0 0 0 0 0 0 127 0" result="hardAlpha"/>
<feOffset dx="-3" dy="1"/>
<feGaussianBlur stdDeviation="2.5"/>
<feComposite in2="hardAlpha" operator="out"/>
<feColorMatrix type="matrix" values="0 0 0 0 0.452751 0 0 0 0 0.452751 0 0 0 0 0.452751 0 0 0 0.2 0"/>
<feBlend mode="normal" in2="effect1_backgroundBlur_151_900" result="effect2_dropShadow_151_900"/>
<feBlend mode="normal" in="SourceGraphic" in2="effect2_dropShadow_151_900" result="shape"/>
</filter>
<linearGradient id="paint0_linear_151_900" x1="25" y1="13" x2="25" y2="51" gradientUnits="userSpaceOnUse">
<stop stop-color="#FFE600"/>
<stop offset="1" stop-color="#FF7A00"/>
</linearGradient>
<linearGradient id="paint1_linear_151_900" x1="25" y1="13" x2="25" y2="51" gradientUnits="userSpaceOnUse">
<stop stop-color="white" stop-opacity="0.1"/>
<stop offset="0.51" stop-color="white" stop-opacity="0.1"/>
<stop offset="1" stop-opacity="0.01"/>
</linearGradient>
<linearGradient id="paint2_linear_151_900" x1="31.6229" y1="33.6579" x2="65.1209" y2="71.8783" gradientUnits="userSpaceOnUse">
<stop stop-color="#00B7E0"/>
<stop offset="1" stop-color="#48BED9" stop-opacity="0.7"/>
</linearGradient>
<linearGradient id="paint3_linear_151_900" x1="43.5" y1="28" x2="43.5" y2="71" gradientUnits="userSpaceOnUse">
<stop stop-color="white" stop-opacity="0.1"/>
<stop offset="0.51" stop-color="white" stop-opacity="0.1"/>
<stop offset="1" stop-opacity="0.01"/>
</linearGradient>
</defs>
</svg>
