<svg width="69" height="24" fill="none" xmlns="http://www.w3.org/2000/svg">
    <path fill-rule="evenodd" clip-rule="evenodd" d="M68 3.42c0-.624-.262-1.1-.687-1.413-.414-.305-.958-.436-1.506-.436-.549 0-1.093.131-1.507.436-.425.312-.687.789-.687 1.414v17.44c0 .625.262 1.102.687 1.414.414.305.958.436 1.507.436.548 0 1.092-.131 1.506-.436.425-.312.687-.788.687-1.414V3.421ZM66.954 2.12c.45.247.75.673.75 1.302v17.44-17.44c0-.629-.3-1.055-.75-1.302Z" fill="url(#a)"/>
    <path fill-rule="evenodd" clip-rule="evenodd" d="m49.837 10.02 5.191 9.357c.699 1.256 1.202 2 1.723 2.423.547.444 1.091.514 1.785.514.89 0 1.572-.136 2.018-.573.448-.439.591-1.114.591-2.001V3.573c0-.582-.237-1.024-.608-1.312-.361-.282-.83-.404-1.287-.404-.456 0-.925.122-1.287.404-.37.288-.608.73-.608 1.312v12.332c-.236-.571-.505-1.1-.803-1.642v-.001L51.36 4.905v-.001c-.699-1.242-1.202-1.986-1.721-2.41-.546-.448-1.09-.526-1.787-.526-.89 0-1.571.136-2.018.573-.448.439-.59 1.114-.59 2.001V20.71c0 .582.236 1.023.607 1.312.362.282.83.404 1.287.404.457 0 .926-.122 1.287-.404.371-.289.608-.73.608-1.312V8.377c.237.571.505 1.1.804 1.642Zm7.903-7.033c.247-.585.87-.852 1.51-.852.824 0 1.62.443 1.62 1.44V19.74c0 .566-.06 1.006-.203 1.343.143-.337.204-.778.204-1.344V3.573c0-.996-.797-1.44-1.62-1.44-.64 0-1.264.268-1.51.854Zm-.385 13.69c.099.285.19.584.275.902v.003c-.33-1.246-.77-2.187-1.319-3.184l-5.19-9.357c-1.402-2.49-1.923-2.795-3.27-2.795-1.187 0-1.835.252-2.131.954.296-.703.944-.956 2.132-.956 1.346 0 1.868.305 3.269 2.796l5.19 9.357c.41.742.757 1.452 1.044 2.28ZM48.76 20.71V6.703 20.71Z" fill="url(#b)"/>
    <path fill-rule="evenodd" clip-rule="evenodd" d="m54.79 19.52-5.19-9.356v-.002c-.101-.182-.199-.364-.293-.546V20.71c0 .672-.278 1.199-.718 1.541-.42.328-.952.46-1.45.46-.5 0-1.031-.132-1.452-.46-.44-.342-.718-.869-.718-1.541V4.542c0-.904.142-1.685.678-2.21.528-.516 1.304-.65 2.205-.65.72 0 1.338.081 1.956.587.566.462 1.092 1.252 1.788 2.49l.002.003 5.19 9.356v.001l.002.001c.1.183.197.364.291.546V3.573c0-.672.278-1.199.718-1.541.421-.328.953-.46 1.451-.46.5 0 1.03.132 1.452.46.44.342.718.869.718 1.541V19.74c0 .904-.143 1.685-.678 2.21-.528.517-1.305.65-2.206.65-.713 0-1.334-.072-1.954-.575-.568-.46-1.095-1.253-1.791-2.505ZM61.1 3.152a1.53 1.53 0 0 0-.563-.89c-.361-.283-.83-.405-1.287-.405-.456 0-.925.122-1.287.404a1.53 1.53 0 0 0-.473.612 1.778 1.778 0 0 0-.135.7v12.332c-.087-.21-.178-.415-.274-.617-.164-.346-.34-.683-.53-1.025l-.003-.007-5.188-9.35v-.002l-.003-.005-.001-.001v-.001c-.697-1.238-1.199-1.98-1.717-2.404-.546-.447-1.09-.525-1.787-.525-.89 0-1.571.136-2.018.573a1.655 1.655 0 0 0-.364.545c-.166.39-.227.879-.227 1.456V20.71c0 .582.237 1.024.608 1.312.362.282.83.404 1.287.404.457 0 .926-.122 1.287-.404a1.53 1.53 0 0 0 .472-.61 1.617 1.617 0 0 0 .092-.285c.029-.13.044-.269.044-.417V8.377c.087.21.179.415.274.617.165.346.341.683.53 1.025v.001l5.191 9.357c.699 1.256 1.202 2 1.723 2.423.547.444 1.091.514 1.785.514.89 0 1.572-.136 2.018-.573.156-.152.275-.333.364-.542a2.289 2.289 0 0 0 .126-.395c.073-.31.102-.666.102-1.064V3.573c0-.15-.016-.29-.046-.421Zm-.433 17.933c.045-.107.082-.224.112-.352a4.49 4.49 0 0 0 .092-.992V3.573c0-.128-.013-.246-.038-.356a1.263 1.263 0 0 0-.456-.732c-.303-.239-.712-.351-1.127-.351-.415 0-.823.112-1.126.351.303-.238.711-.35 1.126-.35.415 0 .823.112 1.126.351.17.134.306.308.393.524.065.163.101.35.101.563V19.741c0 .428-.034.785-.113 1.08a2.026 2.026 0 0 1-.09.264Zm-3.038-3.503v-.003a12.616 12.616 0 0 0-.524-1.561 15.948 15.948 0 0 0-.789-1.613l-.004-.007-5.187-9.35-.004-.007c-.697-1.24-1.177-1.938-1.648-2.327-.476-.393-.945-.47-1.62-.47h-.001c-.884 0-1.47.14-1.833.502.364-.36.95-.5 1.833-.5.676 0 1.144.077 1.62.469.472.388.95 1.086 1.648 2.326l.004.007 5.187 9.35.004.007v.001c.295.534.558 1.053.789 1.612a12.038 12.038 0 0 1 .525 1.56v.004Zm-8.908 3.483a1.352 1.352 0 0 1-.013.053c.032-.124.05-.26.05-.408V6.703v14.006c0 .128-.013.247-.037.356Z" fill="url(#c)"/>
    <path d="M28.624 10.95c.486-.965 1.299-2.012 2.799-3.823l2.853-2.95 2.912 3.011c1.605 1.66 2.426 2.984 2.86 4.027.423 1.022.518 1.882.518 2.708 0 2.6-.934 4.161-2.058 5.108-1.19 1.003-2.782 1.47-4.232 1.47-2.159 0-3.68-.913-4.707-2.148-1.075-1.295-1.584-2.928-1.584-4.171 0-1.509.208-2.376.64-3.232Z" stroke="url(#d)" stroke-width="4.418"/>
    <path fill-rule="evenodd" clip-rule="evenodd" d="M23.583 3.42c0-.624-.262-1.1-.687-1.413-.414-.305-.958-.436-1.507-.436-.548 0-1.092.131-1.506.436-.425.312-.687.789-.687 1.414v17.44c0 .625.262 1.102.687 1.414.414.305.958.436 1.506.436.549 0 1.093-.131 1.507-.436.425-.312.687-.788.687-1.414V3.421ZM22.537 2.12c.45.247.75.673.75 1.302v17.44-17.44c0-.629-.3-1.055-.75-1.302Z" fill="url(#e)"/>
    <path fill-rule="evenodd" clip-rule="evenodd" d="M3.115 1.86h5.824-5.824Zm-.344.007c-1.644.07-2.195.686-2.195 2.394v15.76c0 .682.088 1.19.298 1.557-.21-.368-.298-.875-.298-1.557V4.261c0-1.708.551-2.323 2.195-2.394Zm12.443 8.266c-.416.583-1.005 1.067-1.794 1.412.895.258 1.675.675 2.279 1.285.836.845 1.304 2.028 1.304 3.577v.462c0 1.81-.575 3.288-1.787 4.307-1.205 1.013-2.997 1.535-5.351 1.535h-6.75c-.969 0-1.71-.143-2.194-.599-.488-.459-.643-1.164-.643-2.09V4.26c0-.927.155-1.632.643-2.091.485-.456 1.225-.599 2.194-.599h5.824c2.298 0 4.072.416 5.275 1.323 1.22.918 1.803 2.3 1.803 4.114v.347c0 .995-.226 1.968-.803 2.778Zm-2.423 5.955c0-1.106-.359-1.873-1.401-2.333 1.042.46 1.401 1.227 1.401 2.333v.376c0 1.312-.42 2.04-1.289 2.437.87-.398 1.29-1.125 1.29-2.437v-.376Zm-4.346 3.264a37.774 37.774 0 0 0 0 0Zm-.611-.285H4.668v-5.552h2.897c2.04 0 3.273.226 3.992.651.35.207.577.46.722.766.146.31.214.69.214 1.156v.376c0 .61-.095 1.06-.269 1.397-.17.33-.425.57-.782.746-.743.368-1.909.46-3.608.46ZM11.836 7.21c0-.91-.319-1.478-1.027-1.82.708.342 1.027.91 1.027 1.82v.26c0 1.212-.268 1.932-1.14 2.33.872-.398 1.14-1.118 1.14-2.33v-.26ZM7.476 9.93H4.667V5.215h2.628c1.618 0 2.687.112 3.35.42.32.148.534.338.673.579.141.244.218.565.218.996v.26c0 1.046-.206 1.6-.726 1.936-.275.178-.664.311-1.216.398-.55.087-1.245.125-2.12.125Zm0 .289Z" fill="url(#f)"/>
    <path fill-rule="evenodd" clip-rule="evenodd" d="M8.939 1.571c2.298 0 4.072.416 5.275 1.323 1.22.918 1.803 2.3 1.803 4.114v.347c0 .995-.226 1.968-.803 2.778a4.1 4.1 0 0 1-1.416 1.228 5.1 5.1 0 0 1-.378.184c.136.04.269.082.4.129.728.26 1.367.639 1.879 1.156.836.845 1.304 2.028 1.304 3.577v.462c0 1.81-.575 3.288-1.787 4.307-1.205 1.013-2.997 1.535-5.351 1.535h-6.75c-.969 0-1.71-.142-2.194-.599-.488-.459-.643-1.164-.643-2.09V4.26c0-.927.155-1.632.643-2.09.485-.457 1.225-.6 2.194-.6h5.824Zm5.209 9.92a5.109 5.109 0 0 1 1.744 1.132c.899.908 1.388 2.17 1.388 3.784v.462c0 1.878-.599 3.447-1.89 4.532C14.116 22.471 12.253 23 9.865 23h-6.75c-.978 0-1.813-.14-2.38-.673C.155 21.782 0 20.967 0 20.02V4.261c0-.946.156-1.76.735-2.306.567-.534 1.402-.673 2.38-.673h5.824c2.32 0 4.165.418 5.438 1.378 1.306.984 1.917 2.464 1.917 4.348v.347c0 1.04-.235 2.078-.858 2.95-.329.462-.756.862-1.288 1.186ZM7.777 9.927c.734-.008 1.332-.046 1.818-.123.552-.087.94-.22 1.216-.398.52-.335.726-.89.726-1.935v-.26c0-.432-.077-.753-.218-.997-.139-.24-.353-.43-.673-.58-.663-.307-1.732-.419-3.35-.419H4.668V9.93h2.807a27.69 27.69 0 0 0 .302-.002ZM4.945 9.64h2.53c.87 0 1.548-.038 2.079-.122.533-.084.88-.209 1.111-.358a1.08 1.08 0 0 0 .446-.56c.098-.263.148-.622.148-1.13v-.26c0-.396-.07-.661-.178-.847-.103-.18-.268-.334-.548-.464-.602-.28-1.615-.395-3.237-.395h-2.35V9.64Zm-.277 9.427v-5.552h2.897c2.04 0 3.273.227 3.992.651.35.207.577.46.722.766.146.31.214.69.214 1.156v.376c0 .61-.095 1.06-.269 1.397-.17.33-.425.57-.782.746-.743.368-1.909.46-3.608.46H4.668Zm.277-5.263v4.974h2.889c.847 0 1.55-.023 2.132-.09.583-.068 1.025-.178 1.357-.342.311-.154.518-.354.656-.622.145-.28.236-.678.236-1.26v-.375c0-.44-.064-.772-.185-1.03-.118-.247-.304-.46-.61-.641-.65-.385-1.818-.614-3.855-.614h-2.62Z" fill="url(#g)"/>
    <defs>
        <linearGradient id="a" x1="65.807" y1="1.571" x2="65.807" y2="22.711" gradientUnits="userSpaceOnUse">
            <stop stop-color="#007ADF"/>
            <stop offset="1" stop-color="#48BED9"/>
        </linearGradient>
        <linearGradient id="b" x1="53.194" y1="1.857" x2="53.194" y2="22.425" gradientUnits="userSpaceOnUse">
            <stop stop-color="#007ADF"/>
            <stop offset="1" stop-color="#48BED9"/>
        </linearGradient>
        <linearGradient id="c" x1="53.194" y1="1.571" x2="53.194" y2="22.711" gradientUnits="userSpaceOnUse">
            <stop stop-color="#007ADF"/>
            <stop offset="1" stop-color="#48BED9"/>
        </linearGradient>
        <linearGradient id="d" x1="34.276" y1="1" x2="34.276" y2="22.711" gradientUnits="userSpaceOnUse">
            <stop stop-color="#007ADF"/>
            <stop offset="1" stop-color="#48BED9"/>
        </linearGradient>
        <linearGradient id="e" x1="21.389" y1="1.571" x2="21.389" y2="22.711" gradientUnits="userSpaceOnUse">
            <stop stop-color="#007ADF"/>
            <stop offset="1" stop-color="#48BED9"/>
        </linearGradient>
        <linearGradient id="f" x1="8.64" y1="1.571" x2="8.64" y2="22.711" gradientUnits="userSpaceOnUse">
            <stop stop-color="#007ADF"/>
            <stop offset="1" stop-color="#48BED9"/>
        </linearGradient>
        <linearGradient id="g" x1="8.64" y1="1.282" x2="8.64" y2="23" gradientUnits="userSpaceOnUse">
            <stop stop-color="#007ADF"/>
            <stop offset="1" stop-color="#48BED9"/>
        </linearGradient>
    </defs>
</svg>
