<svg width="69" height="24" viewBox="0 0 69 24" fill="none" xmlns="http://www.w3.org/2000/svg">
<path fill-rule="evenodd" clip-rule="evenodd" d="M68 3.42064C68 2.79556 67.738 2.31923 67.3132 2.00692C66.8989 1.70231 66.355 1.57129 65.8066 1.57129C65.2581 1.57129 64.7142 1.70231 64.2999 2.00692C63.8751 2.31923 63.6131 2.79556 63.6131 3.42064V20.8614C63.6131 21.4865 63.8751 21.9628 64.2999 22.2751C64.7142 22.5798 65.2581 22.7108 65.8066 22.7108C66.355 22.7108 66.8989 22.5798 67.3132 22.2751C67.738 21.9628 68 21.4865 68 20.8614V3.42064ZM66.9541 2.11885C67.4034 2.36594 67.7036 2.79243 67.7036 3.42064V20.8614L67.7036 3.42064C67.7036 2.79243 67.4034 2.36594 66.9541 2.11885Z" fill="url(#paint0_linear_133_1238)"/>
<path fill-rule="evenodd" clip-rule="evenodd" d="M49.8372 10.0199L55.0282 19.3766C55.7265 20.6325 56.2299 21.3778 56.7506 21.7999C57.2978 22.2435 57.8423 22.3143 58.5363 22.3143C59.4269 22.3143 60.108 22.1781 60.5541 21.7412C61.0025 21.302 61.1455 20.6266 61.1455 19.7398V3.57319C61.1455 2.99095 60.9083 2.54948 60.5375 2.26068C60.1758 1.97895 59.7068 1.85687 59.2504 1.85687C58.794 1.85687 58.325 1.97895 57.9632 2.26068C57.5924 2.54948 57.3553 2.99095 57.3553 3.57319V15.9045C57.1187 15.3335 56.8504 14.8047 56.5517 14.2626L56.5513 14.262L51.3604 4.90526L51.3596 4.90389C50.6614 3.66202 50.1583 2.91806 49.6389 2.49317C49.0928 2.04641 48.5494 1.9676 47.8523 1.9676C46.9616 1.9676 46.2805 2.10379 45.8344 2.54072C45.386 2.97989 45.2431 3.65526 45.2431 4.54208V20.7087C45.2431 21.2909 45.4802 21.7324 45.851 22.0212C46.2127 22.3029 46.6818 22.425 47.1382 22.425C47.5946 22.425 48.0636 22.3029 48.4253 22.0212C48.7961 21.7324 49.0333 21.2909 49.0333 20.7087V8.37734C49.2699 8.94842 49.5381 9.47723 49.8369 10.0193L49.8372 10.0199ZM57.7405 2.98709C57.9874 2.40165 58.6104 2.13482 59.2499 2.13482C60.0739 2.13482 60.8704 2.57774 60.8704 3.57431V19.7409C60.8704 20.3069 60.8096 20.7475 60.6675 21.0845C60.81 20.7474 60.8708 20.3064 60.8708 19.7398V3.57319C60.8708 2.57662 60.0743 2.1337 59.2504 2.1337C58.6104 2.1337 57.9871 2.40087 57.7405 2.98709ZM57.3553 16.6779C57.4538 16.9623 57.5452 17.2606 57.6295 17.5788V17.5817C57.2999 16.336 56.8604 15.3948 56.3111 14.3982L51.1202 5.04149C49.7194 2.55006 49.1976 2.24555 47.8518 2.24555C46.6643 2.24555 46.0158 2.49825 45.72 3.19996C46.0155 2.49739 46.6641 2.24443 47.8523 2.24443C49.1981 2.24443 49.7199 2.54894 51.1206 5.04036L56.3116 14.3971C56.7203 15.1386 57.0682 15.8494 57.3553 16.6779ZM48.7586 20.7087C48.7586 20.932 48.7186 21.1275 48.6473 21.2965C48.7183 21.1278 48.7581 20.9326 48.7581 20.7098V6.70244C48.7583 6.70304 48.7585 6.70363 48.7586 6.70423V20.7087Z" fill="url(#paint1_linear_133_1238)"/>
<path fill-rule="evenodd" clip-rule="evenodd" d="M54.7908 19.5197L49.6004 10.164L49.6001 10.1633L49.5999 10.163L49.5991 10.1616C49.4987 9.97951 49.4015 9.79835 49.3075 9.61615V20.7088C49.3075 21.3814 49.0293 21.9076 48.5895 22.2501C48.1685 22.578 47.6369 22.7108 47.1382 22.7108C46.6394 22.7108 46.1079 22.578 45.6869 22.2501C45.2471 21.9076 44.9689 21.3814 44.9689 20.7088V4.54217C44.9689 3.63828 45.1112 2.85707 45.6466 2.33266C46.1747 1.8155 46.9513 1.68202 47.8523 1.68202C48.572 1.68202 49.1903 1.76306 49.8083 2.26856C50.3738 2.73122 50.8999 3.52107 51.5961 4.75948C51.5961 4.75944 51.5961 4.75951 51.5961 4.75948L51.5978 4.76238L56.7883 14.1184L56.7887 14.1191L56.7895 14.1204C56.8898 14.3025 56.9871 14.4837 57.0811 14.6659V3.57328C57.0811 2.90061 57.3593 2.37448 57.7991 2.03196C58.2201 1.70405 58.7516 1.57129 59.2504 1.57129C59.7492 1.57129 60.2807 1.70405 60.7017 2.03196C61.1415 2.37448 61.4197 2.90061 61.4197 3.57328V19.7399C61.4197 20.6438 61.2774 21.425 60.7419 21.9494C60.2139 22.4666 59.4373 22.6 58.5363 22.6C57.8226 22.6 57.2023 22.5282 56.5822 22.0254C56.0142 21.5649 55.4874 20.7723 54.7908 19.5197ZM61.1001 3.1517C61.0801 3.06321 61.0536 2.97907 61.0214 2.89934C60.916 2.63857 60.7484 2.42499 60.5375 2.26077C60.1758 1.97904 59.7068 1.85696 59.2504 1.85696C59.2502 1.85696 59.2501 1.85696 59.2499 1.85696C58.7937 1.85704 58.3249 1.97913 57.9632 2.26077C57.7596 2.41936 57.5963 2.62399 57.4904 2.87269C57.4904 2.87277 57.4905 2.8726 57.4904 2.87269C57.4036 3.07681 57.3553 3.31088 57.3553 3.57328V15.9045C57.2682 15.6942 57.1768 15.4898 57.0811 15.2882C56.917 14.9423 56.7404 14.6051 56.5517 14.2627L56.5513 14.2621L56.5479 14.2558L51.3604 4.90534L51.3596 4.90397C51.3587 4.90233 51.3578 4.90069 51.3568 4.89905C51.3567 4.89884 51.3566 4.89863 51.3565 4.89842C51.3563 4.89815 51.3562 4.89789 51.356 4.89762C51.3559 4.89742 51.3558 4.89721 51.3557 4.897C50.6595 3.65932 50.1574 2.91735 49.6389 2.49325C49.0928 2.04649 48.5494 1.96769 47.8523 1.96769C47.8521 1.96769 47.852 1.96769 47.8518 1.96769C46.9614 1.96774 46.2805 2.10395 45.8344 2.5408C45.678 2.694 45.5588 2.87593 45.4698 3.08555C45.4698 3.08562 45.4698 3.08549 45.4698 3.08555C45.3037 3.47684 45.2431 3.96478 45.2431 4.54217V20.7088C45.2431 21.291 45.4802 21.7325 45.851 22.0213C46.2128 22.303 46.6818 22.4251 47.1382 22.4251C47.5946 22.4251 48.0636 22.303 48.4253 22.0213C48.6285 21.8631 48.7915 21.6591 48.8974 21.4112C48.8973 21.4113 48.8974 21.4111 48.8974 21.4112C48.9271 21.3416 48.9524 21.2683 48.9727 21.1919C48.9785 21.1702 48.9839 21.1483 48.9888 21.1261C49.0179 20.9962 49.0333 20.8571 49.0333 20.7088V8.37742C49.1204 8.58772 49.2118 8.79228 49.3075 8.99388C49.4716 9.33975 49.6481 9.67691 49.8369 10.0193L49.8372 10.02L55.0282 19.3767C55.7265 20.6326 56.2299 21.3779 56.7506 21.7999C57.2978 22.2436 57.8423 22.3144 58.5363 22.3144C59.4269 22.3144 60.108 22.1782 60.5541 21.7412C60.7099 21.5887 60.8287 21.4078 60.9176 21.1993C60.9176 21.1994 60.9176 21.1993 60.9176 21.1993C60.9573 21.1061 60.9911 21.0072 61.0194 20.9032C61.0282 20.8707 61.0365 20.8378 61.0443 20.8043C61.1167 20.4936 61.1455 20.1381 61.1455 19.7399V3.57328C61.1455 3.42335 61.1298 3.28276 61.1001 3.1517ZM60.6675 21.0846C60.7125 20.9782 60.7493 20.8614 60.7787 20.7335C60.8423 20.4567 60.8708 20.1282 60.8708 19.741C60.8708 19.7406 60.8708 19.7403 60.8708 19.7399V3.57328C60.8708 3.44542 60.8577 3.32669 60.8331 3.21683C60.7626 2.90179 60.5976 2.65976 60.3765 2.48522C60.0737 2.24621 59.6655 2.13378 59.2504 2.13378C59.2502 2.13378 59.2501 2.13378 59.2499 2.13378C58.835 2.13387 58.427 2.2463 58.1243 2.48522C57.9603 2.61467 57.8272 2.78123 57.7406 2.98718C57.8273 2.78141 57.9605 2.615 58.1246 2.4857C58.4274 2.24713 58.8352 2.13491 59.2499 2.13491C59.2501 2.13491 59.2502 2.13491 59.2504 2.13491C59.6653 2.13499 60.0731 2.24737 60.3758 2.48618C60.5456 2.62011 60.6823 2.79382 60.7686 3.00978C60.8338 3.17309 60.8702 3.36056 60.8704 3.57328C60.8704 3.57365 60.8704 3.57402 60.8704 3.5744V19.741C60.8704 20.1695 60.8356 20.5261 60.757 20.8203C60.7318 20.9147 60.702 21.0027 60.6675 21.0846ZM57.6295 17.5818V17.5789C57.5452 17.2607 57.4538 16.9624 57.3553 16.678C57.2763 16.45 57.1927 16.2309 57.1045 16.0176C57.1044 16.0176 57.1045 16.0177 57.1045 16.0176C56.8733 15.4589 56.6105 14.9399 56.3162 14.4055C56.3161 14.4052 56.3159 14.405 56.3158 14.4048C56.3157 14.4046 56.3156 14.4043 56.3154 14.4041C56.3154 14.4041 56.3154 14.4041 56.3154 14.4041C56.3143 14.402 56.3131 14.3999 56.3119 14.3978C56.3118 14.3976 56.3117 14.3974 56.3116 14.3972L51.1246 5.04755L51.121 5.04108L51.1207 5.04045C50.4237 3.80075 49.9443 3.10251 49.4727 2.71383C48.9966 2.32138 48.5284 2.24451 47.8523 2.24451C47.8521 2.24451 47.852 2.24451 47.8518 2.24451C46.9679 2.24456 46.3827 2.38465 46.0193 2.74575C45.8944 2.86994 45.7956 3.02028 45.72 3.20004C45.7957 3.0204 45.8946 2.87018 46.0196 2.7461C46.3831 2.38551 46.9683 2.24564 47.8518 2.24564C47.852 2.24564 47.8521 2.24564 47.8523 2.24564C48.5281 2.24567 48.9961 2.32257 49.472 2.71476C49.9436 3.10334 50.4229 3.80143 51.1198 5.04095C51.1198 5.04095 51.1198 5.04095 51.1198 5.04095C51.1199 5.04115 51.1201 5.04137 51.1202 5.04157L51.1237 5.04789L56.3111 14.3983C56.3123 14.4004 56.3134 14.4025 56.3146 14.4046C56.3146 14.4046 56.3146 14.4046 56.3146 14.4046C56.3147 14.4048 56.3149 14.4051 56.315 14.4053C56.3151 14.4055 56.3152 14.4057 56.3154 14.406C56.6097 14.9404 56.8725 15.4592 57.1036 16.0178C57.1036 16.0178 57.1036 16.0178 57.1036 16.0178C57.1918 16.2311 57.2755 16.4502 57.3545 16.6782C57.4531 16.9626 57.5445 17.2608 57.6287 17.5789C57.6287 17.5788 57.6287 17.5789 57.6287 17.5789C57.6289 17.5798 57.6292 17.5809 57.6295 17.5818ZM48.7209 21.0652C48.7026 21.1472 48.6778 21.2243 48.6473 21.2966C48.6711 21.2401 48.6914 21.1806 48.7078 21.1182C48.7405 20.9941 48.7582 20.8581 48.7582 20.7099V6.70253L48.7586 6.70432V20.7088C48.7586 20.7092 48.7586 20.7095 48.7586 20.7099C48.7586 20.8373 48.7455 20.9557 48.7209 21.0652Z" fill="url(#paint2_linear_133_1238)"/>
<path d="M28.6243 10.9496C29.1104 9.98457 29.9227 8.93848 31.423 7.12727L34.2759 4.17772L37.1877 7.18823C38.7926 8.84762 39.6145 10.1716 40.0471 11.2152C40.4706 12.2368 40.5662 13.0967 40.5662 13.9231C40.5662 16.5226 39.6321 18.0841 38.5082 19.0313C37.3181 20.0342 35.7257 20.5016 34.2759 20.5016C32.1174 20.5016 30.5954 19.588 29.5694 18.3528C28.4938 17.0579 27.9855 15.4254 27.9855 14.1816C27.9855 12.673 28.1928 11.8062 28.6243 10.9496Z" stroke="url(#paint3_linear_133_1238)" stroke-width="4.41845"/>
<path fill-rule="evenodd" clip-rule="evenodd" d="M23.5828 3.42064C23.5828 2.79556 23.3209 2.31923 22.8961 2.00692C22.4818 1.70231 21.9378 1.57129 21.3894 1.57129C20.841 1.57129 20.297 1.70231 19.8827 2.00692C19.4579 2.31923 19.196 2.79556 19.196 3.42064V20.8614C19.196 21.4865 19.4579 21.9628 19.8827 22.2751C20.297 22.5798 20.841 22.7108 21.3894 22.7108C21.9378 22.7108 22.4818 22.5798 22.8961 22.2751C23.3209 21.9628 23.5828 21.4865 23.5828 20.8614V3.42064ZM22.537 2.11885C22.9862 2.36594 23.2864 2.79243 23.2864 3.42064V20.8614L23.2864 3.42064C23.2864 2.79243 22.9862 2.36594 22.537 2.11885Z" fill="url(#paint4_linear_133_1238)"/>
<path fill-rule="evenodd" clip-rule="evenodd" d="M3.11482 1.86041H8.93869C9.22242 1.86041 9.49716 1.86685 9.76294 1.87978C9.49717 1.86685 9.22243 1.86041 8.93871 1.86041H3.11484C3.11483 1.86041 3.11482 1.86041 3.11482 1.86041ZM2.77132 1.86735C1.12744 1.93757 0.576206 2.55265 0.576206 4.26066V20.0213C0.576206 20.7027 0.663949 21.2102 0.873816 21.5785C0.663953 21.2102 0.576225 20.7027 0.576225 20.0213V4.26066C0.576225 2.55266 1.12746 1.93757 2.77132 1.86735ZM15.2136 10.1328C14.7976 10.716 14.2087 11.2003 13.4196 11.545C14.3149 11.8025 15.0949 12.22 15.6987 12.8301C16.535 13.6751 17.0025 14.8582 17.0025 16.4065V16.8692C17.0025 18.6795 16.4285 20.1568 15.2159 21.1759C14.0105 22.189 12.2194 22.7107 9.86454 22.7107H3.11482C2.14632 22.7107 1.40572 22.5684 0.920596 22.112C0.432982 21.6532 0.277546 20.9477 0.277546 20.0213V4.26066C0.277546 3.33424 0.432982 2.62872 0.920596 2.16993C1.40572 1.7135 2.14632 1.57123 3.11482 1.57123H8.93869C11.2367 1.57123 13.0106 1.98685 14.2143 2.89376C15.4331 3.81207 16.0169 5.19479 16.0169 7.00792V7.35494C16.0169 8.34959 15.7914 9.32305 15.2136 10.1328ZM12.7914 16.0883C12.7914 14.9822 12.4323 14.2146 11.3899 13.7547C12.4323 14.2146 12.7914 14.9822 12.7914 16.0883V16.4643C12.7914 17.7755 12.3712 18.5033 11.5021 18.9007C12.3712 18.5033 12.7914 17.7755 12.7914 16.4643V16.0883ZM8.44549 19.3516C8.24851 19.3548 8.04458 19.3561 7.83365 19.3561L7.83367 19.3561C8.04459 19.3561 8.24851 19.3548 8.44549 19.3516ZM7.83365 19.067H4.66785V13.5146H7.56486C9.60547 13.5146 10.838 13.7414 11.5569 14.1663C11.9066 14.373 12.1344 14.6265 12.2786 14.9317C12.4251 15.2419 12.4928 15.6216 12.4928 16.0883V16.4643C12.4928 17.0742 12.3975 17.5241 12.2241 17.8607C12.054 18.1908 11.7995 18.4301 11.4421 18.6071C10.6989 18.9751 9.53329 19.067 7.83365 19.067ZM11.8357 7.21035C11.8357 6.29941 11.5174 5.73175 10.8095 5.39012C11.5174 5.73175 11.8357 6.29941 11.8357 7.21035V7.47062C11.8357 8.68207 11.5677 9.40233 10.6958 9.79929C11.5677 9.40232 11.8357 8.68206 11.8357 7.47062V7.21035ZM7.47526 9.92869H4.66785V5.21497H7.29606C8.91365 5.21497 9.98349 5.32697 10.6463 5.63477C10.9662 5.78332 11.1805 5.97311 11.3192 6.2136C11.4603 6.45812 11.537 6.77913 11.537 7.21035V7.47062C11.537 8.5156 11.331 9.07071 10.8114 9.40612C10.5358 9.58403 10.1473 9.71722 9.59541 9.80412C9.04449 9.89085 8.34976 9.92869 7.47526 9.92869ZM7.47526 10.2179C7.69552 10.2179 7.90528 10.2155 8.105 10.2105C7.90529 10.2155 7.69553 10.2179 7.47528 10.2179L7.47526 10.2179Z" fill="url(#paint5_linear_133_1238)"/>
<path fill-rule="evenodd" clip-rule="evenodd" d="M8.9387 1.57135C11.2367 1.57135 13.0106 1.98698 14.2143 2.89388C15.4331 3.81219 16.0169 5.19492 16.0169 7.00804V7.35506C16.0169 8.34971 15.7914 9.32317 15.2136 10.1329C14.8669 10.6189 14.4002 11.0362 13.7977 11.3613C13.6771 11.4263 13.5512 11.4877 13.4196 11.5452C13.5556 11.5843 13.689 11.6271 13.8194 11.6737C14.5478 11.9339 15.1866 12.3128 15.6987 12.8302C16.535 13.6752 17.0025 14.8584 17.0025 16.4066V16.8693C17.0025 18.6796 16.4285 20.1569 15.2159 21.176C14.0105 22.1891 12.2194 22.7108 9.86454 22.7108H3.11482C2.14632 22.7108 1.40572 22.5686 0.920598 22.1121C0.432984 21.6533 0.277548 20.9478 0.277548 20.0214V4.26078C0.277548 3.33436 0.432984 2.62884 0.920598 2.17006C1.40572 1.71362 2.14632 1.57135 3.11482 1.57135H8.9387ZM14.1478 11.4906C14.8106 11.7576 15.4031 12.1287 15.8919 12.6226C16.7906 13.5306 17.2801 14.7933 17.2801 16.4066V16.8693C17.2801 18.7474 16.6815 20.3159 15.3902 21.4011C14.1163 22.4718 12.2528 23 9.86454 23H3.11482C2.13743 23 1.30231 22.8609 0.734578 22.3267C0.15565 21.7821 -7.62939e-06 20.9675 -7.62939e-06 20.0214V4.26078C-7.62939e-06 3.3147 0.15565 2.50013 0.734578 1.95543C1.30231 1.42127 2.13743 1.28217 3.11482 1.28217H8.9387C11.2599 1.28217 13.1037 1.70023 14.3769 2.65955C15.6831 3.64373 16.2945 5.12365 16.2945 7.00804V7.35506C16.2945 8.39406 16.0587 9.43321 15.4364 10.3055C15.1073 10.7668 14.6802 11.1669 14.1478 11.4906ZM7.77667 9.92723C8.51133 9.91924 9.10935 9.88077 9.59542 9.80424C10.1473 9.71735 10.5358 9.58415 10.8114 9.40624C11.331 9.07083 11.537 8.51572 11.537 7.47074V7.21047C11.537 6.77925 11.4603 6.45825 11.3192 6.21373C11.1805 5.97324 10.9662 5.78345 10.6463 5.63489C9.9835 5.3271 8.91366 5.21509 7.29607 5.21509H4.66785V9.92882H7.47526C7.47526 9.92882 7.47527 9.92882 7.47526 9.92882C7.4889 9.92882 7.50252 9.92881 7.51608 9.92879C7.59635 9.92868 7.67513 9.92825 7.75247 9.92748C7.76055 9.9274 7.76862 9.92732 7.77667 9.92723ZM4.94541 9.63963H7.47526C8.34414 9.63963 9.02302 9.60189 9.55394 9.5183C10.0872 9.43434 10.4343 9.30946 10.6652 9.16042C10.8741 9.02555 11.0159 8.85222 11.1105 8.59956C11.2088 8.33667 11.2595 7.97792 11.2595 7.47074V7.21047C11.2595 6.81377 11.1888 6.54899 11.0813 6.3627C10.9778 6.18318 10.8127 6.02876 10.5333 5.89903C9.93146 5.61954 8.91845 5.50428 7.29607 5.50428H4.94541V9.63963ZM4.66785 19.0671V13.5147H7.56486C9.60547 13.5147 10.838 13.7416 11.5569 14.1664C11.9066 14.3731 12.1344 14.6266 12.2786 14.9318C12.4251 15.242 12.4928 15.6218 12.4928 16.0885V16.4644C12.4928 17.0743 12.3975 17.5243 12.2241 17.8608C12.054 18.1909 11.7995 18.4302 11.4421 18.6072C10.6989 18.9752 9.5333 19.0671 7.83365 19.0671H4.66785ZM4.94541 13.8039V18.7779H7.83365C8.6805 18.7779 9.38463 18.7549 9.96593 18.6877C10.5489 18.6204 10.9913 18.5102 11.323 18.346C11.6345 18.1917 11.8412 17.9925 11.9795 17.724C12.124 17.4435 12.2152 17.0455 12.2152 16.4644V16.0885C12.2152 15.6489 12.1512 15.317 12.0295 15.0595C11.9124 14.8115 11.7262 14.5989 11.42 14.418C10.7693 14.0334 9.60186 13.8039 7.56486 13.8039H4.94541Z" fill="url(#paint6_linear_133_1238)"/>
<defs>
<linearGradient id="paint0_linear_133_1238" x1="65.8066" y1="1.57129" x2="65.8066" y2="22.7108" gradientUnits="userSpaceOnUse">
<stop stop-color="#007ADF"/>
<stop offset="1" stop-color="#48BED9"/>
</linearGradient>
<linearGradient id="paint1_linear_133_1238" x1="53.1943" y1="1.85687" x2="53.1943" y2="22.425" gradientUnits="userSpaceOnUse">
<stop stop-color="#007ADF"/>
<stop offset="1" stop-color="#48BED9"/>
</linearGradient>
<linearGradient id="paint2_linear_133_1238" x1="53.1943" y1="1.57129" x2="53.1943" y2="22.7108" gradientUnits="userSpaceOnUse">
<stop stop-color="#007ADF"/>
<stop offset="1" stop-color="#48BED9"/>
</linearGradient>
<linearGradient id="paint3_linear_133_1238" x1="34.2759" y1="1" x2="34.2759" y2="22.7108" gradientUnits="userSpaceOnUse">
<stop stop-color="#007ADF"/>
<stop offset="1" stop-color="#48BED9"/>
</linearGradient>
<linearGradient id="paint4_linear_133_1238" x1="21.3894" y1="1.57129" x2="21.3894" y2="22.7108" gradientUnits="userSpaceOnUse">
<stop stop-color="#007ADF"/>
<stop offset="1" stop-color="#48BED9"/>
</linearGradient>
<linearGradient id="paint5_linear_133_1238" x1="8.64003" y1="1.57123" x2="8.64003" y2="22.7107" gradientUnits="userSpaceOnUse">
<stop stop-color="#007ADF"/>
<stop offset="1" stop-color="#48BED9"/>
</linearGradient>
<linearGradient id="paint6_linear_133_1238" x1="8.64004" y1="1.28217" x2="8.64004" y2="23" gradientUnits="userSpaceOnUse">
<stop stop-color="#007ADF"/>
<stop offset="1" stop-color="#48BED9"/>
</linearGradient>
</defs>
</svg>
