<svg width="84" height="84" viewBox="0 0 84 84" fill="none" xmlns="http://www.w3.org/2000/svg">
<g filter="url(#filter0_b_144_2642)">
<mask id="path-1-inside-1_144_2642" fill="white">
<path fill-rule="evenodd" clip-rule="evenodd" d="M45.3846 42.9999C50.1428 42.9999 54 39.2391 54 34.5999C54 29.9607 50.1428 26.1999 45.3846 26.1999C45.3481 26.1999 45.3115 26.2001 45.275 26.2006C44.3633 18.7647 37.8721 13 30 13C22.1279 13 15.6367 18.7647 14.7249 26.2006C14.6885 26.2001 14.652 26.1999 14.6154 26.1999C9.85724 26.1999 6 29.9607 6 34.5999C6 39.2391 9.85724 42.9999 14.6154 42.9999L14.6154 43H29.9706C29.9804 43 29.9902 43 30 43C30.0098 43 30.0196 43 30.0293 43H45.3846L45.3846 42.9999Z"/>
</mask>
<path fill-rule="evenodd" clip-rule="evenodd" d="M45.3846 42.9999C50.1428 42.9999 54 39.2391 54 34.5999C54 29.9607 50.1428 26.1999 45.3846 26.1999C45.3481 26.1999 45.3115 26.2001 45.275 26.2006C44.3633 18.7647 37.8721 13 30 13C22.1279 13 15.6367 18.7647 14.7249 26.2006C14.6885 26.2001 14.652 26.1999 14.6154 26.1999C9.85724 26.1999 6 29.9607 6 34.5999C6 39.2391 9.85724 42.9999 14.6154 42.9999L14.6154 43H29.9706C29.9804 43 29.9902 43 30 43C30.0098 43 30.0196 43 30.0293 43H45.3846L45.3846 42.9999Z" fill="url(#paint0_linear_144_2642)"/>
<path d="M45.3846 42.9999V40.9999H43.8861L43.4652 42.4381L45.3846 42.9999ZM45.275 26.2006L43.2899 26.444L43.508 28.2222L45.2994 28.2004L45.275 26.2006ZM14.7249 26.2006L14.7006 28.2004L16.492 28.2222L16.7101 26.444L14.7249 26.2006ZM14.6154 42.9999L16.6148 42.9511L16.5672 40.9999H14.6154V42.9999ZM14.6154 43L12.616 43.0487L12.6636 45H14.6154V43ZM29.9706 43L29.9742 41H29.9706V43ZM30.0293 43V41L30.0258 41L30.0293 43ZM45.3846 43V45H46.8832L47.3041 43.5618L45.3846 43ZM52 34.5999C52 38.0871 49.0863 40.9999 45.3846 40.9999V44.9999C51.1993 44.9999 56 40.3911 56 34.5999H52ZM45.3846 28.1999C49.0863 28.1999 52 31.1127 52 34.5999H56C56 28.8087 51.1993 24.1999 45.3846 24.1999V28.1999ZM45.2994 28.2004C45.3278 28.2001 45.3562 28.1999 45.3846 28.1999V24.1999C45.3399 24.1999 45.2953 24.2002 45.2507 24.2007L45.2994 28.2004ZM30 15C36.889 15 42.5044 20.038 43.2899 26.444L47.2602 25.9571C46.2221 17.4914 38.8552 11 30 11V15ZM16.7101 26.444C17.4956 20.038 23.111 15 30 15V11C21.1448 11 13.7779 17.4914 12.7398 25.9571L16.7101 26.444ZM14.6154 28.1999C14.6438 28.1999 14.6722 28.2001 14.7006 28.2004L14.7493 24.2007C14.7047 24.2002 14.6601 24.1999 14.6154 24.1999V28.1999ZM8 34.5999C8 31.1127 10.9138 28.1999 14.6154 28.1999V24.1999C8.80071 24.1999 4 28.8087 4 34.5999H8ZM14.6154 40.9999C10.9138 40.9999 8 38.0871 8 34.5999H4C4 40.3911 8.80071 44.9999 14.6154 44.9999V40.9999ZM16.6148 42.9512L16.6148 42.9511L12.616 43.0487L12.616 43.0487L16.6148 42.9512ZM29.9706 41H14.6154V45H29.9706V41ZM30 41C29.9915 41 29.9829 41 29.9742 41L29.9671 45C29.978 45 29.9889 45 30 45V41ZM30.0258 41C30.0171 41 30.0085 41 30 41V45C30.0111 45 30.022 45 30.0328 45L30.0258 41ZM45.3846 41H30.0293V45H45.3846V41ZM43.4652 42.4381L43.4651 42.4382L47.3041 43.5618L47.3041 43.5617L43.4652 42.4381Z" fill="url(#paint1_linear_144_2642)" mask="url(#path-1-inside-1_144_2642)"/>
</g>
<g filter="url(#filter1_bd_144_2642)">
<mask id="path-3-inside-2_144_2642" fill="white">
<path fill-rule="evenodd" clip-rule="evenodd" d="M27.9487 58.9999C21.9019 58.9999 17 54.2362 17 48.3599C17 42.4836 21.9019 37.7199 27.9487 37.7199C28.0123 37.7199 28.0758 37.7205 28.1391 37.7215C29.2975 28.3023 37.5469 21 47.5513 21C57.5553 21 65.8044 28.3017 66.9633 37.7203C66.9926 37.7201 67.0219 37.72 67.0513 37.72C73.0981 37.72 78 42.4837 78 48.36C78 54.2363 73.0981 59 67.0513 59C67.0513 59 67.0513 59 67.0513 59V59H27.9487L27.9487 58.9999Z"/>
</mask>
<path fill-rule="evenodd" clip-rule="evenodd" d="M27.9487 58.9999C21.9019 58.9999 17 54.2362 17 48.3599C17 42.4836 21.9019 37.7199 27.9487 37.7199C28.0123 37.7199 28.0758 37.7205 28.1391 37.7215C29.2975 28.3023 37.5469 21 47.5513 21C57.5553 21 65.8044 28.3017 66.9633 37.7203C66.9926 37.7201 67.0219 37.72 67.0513 37.72C73.0981 37.72 78 42.4837 78 48.36C78 54.2363 73.0981 59 67.0513 59C67.0513 59 67.0513 59 67.0513 59V59H27.9487L27.9487 58.9999Z" fill="url(#paint2_linear_144_2642)" fill-opacity="0.7" shape-rendering="crispEdges"/>
<path d="M27.9487 58.9999L29.938 59.2071L30.1679 56.9999H27.9487V58.9999ZM28.1391 37.7215L28.106 39.7212L29.9046 39.751L30.1242 37.9656L28.1391 37.7215ZM66.9633 37.7203L64.9782 37.9646L65.196 39.7339L66.9786 39.7202L66.9633 37.7203ZM67.0513 59V57H65.0513V59H67.0513ZM67.0513 59V61H69.0513V59H67.0513ZM27.9487 59L25.9595 58.7928L25.7296 61H27.9487V59ZM27.9487 56.9999C22.9522 56.9999 19 53.0781 19 48.3599H15C15 55.3944 20.8516 60.9999 27.9487 60.9999V56.9999ZM19 48.3599C19 43.6417 22.9522 39.7199 27.9487 39.7199V35.7199C20.8516 35.7199 15 41.3255 15 48.3599H19ZM27.9487 39.7199C28.0012 39.7199 28.0536 39.7204 28.106 39.7212L28.1723 35.7218C28.0979 35.7206 28.0234 35.7199 27.9487 35.7199V39.7199ZM30.1242 37.9656C31.1553 29.581 38.5245 23 47.5513 23V19C36.5692 19 27.4397 27.0237 26.1541 37.4774L30.1242 37.9656ZM47.5513 23C56.5777 23 63.9466 29.5804 64.9782 37.9646L68.9483 37.4761C67.6621 27.023 58.5329 19 47.5513 19V23ZM66.9786 39.7202C67.0028 39.7201 67.0271 39.72 67.0513 39.72V35.72C67.0168 35.72 66.9824 35.7201 66.9479 35.7204L66.9786 39.7202ZM67.0513 39.72C72.0479 39.72 76 43.6418 76 48.36H80C80 41.3256 74.1484 35.72 67.0513 35.72V39.72ZM76 48.36C76 53.0782 72.0479 57 67.0513 57V61C74.1484 61 80 55.3944 80 48.36H76ZM67.0513 57C67.0513 57 67.0513 57 67.0513 57C67.0513 57 67.0513 57 67.0513 57H67.0513H67.0513C67.0513 57 67.0513 57 67.0513 57C67.0513 57 67.0513 57 67.0513 57C67.0513 57 67.0513 57 67.0513 57C67.0513 57 67.0513 57 67.0513 57H67.0513H67.0513C67.0513 57 67.0513 57 67.0513 57C67.0513 57 67.0513 57 67.0513 57V61C67.0513 61 67.0513 61 67.0513 61C67.0513 61 67.0513 61 67.0513 61H67.0513H67.0513C67.0513 61 67.0513 61 67.0513 61C67.0513 61 67.0513 61 67.0513 61C67.0513 61 67.0513 61 67.0513 61C67.0513 61 67.0513 61 67.0513 61H67.0513H67.0513C67.0513 61 67.0513 61 67.0513 61C67.0513 61 67.0513 61 67.0513 61V57ZM65.0513 59V59H69.0513V59H65.0513ZM67.0513 57H27.9487V61H67.0513V57ZM29.9379 59.2072L29.938 59.2071L25.9595 58.7927L25.9595 58.7928L29.9379 59.2072Z" fill="url(#paint3_linear_144_2642)" mask="url(#path-3-inside-2_144_2642)"/>
</g>
<g filter="url(#filter2_bd_144_2642)">
<path d="M36.5503 58.7036L39.2919 56.9519C39.7131 56.6828 40.2748 56.8438 40.4893 57.2952L41.8861 60.2336C43.2867 63.1802 43.1015 64.945 42.7162 66.2888C41.5216 70.4546 38.2624 71.1925 36.0392 70.555C32.6303 69.5775 31.9343 65.8513 32.5894 63.5668C33.2445 61.2823 34.0974 60.5452 36.5503 58.7036Z" fill="url(#paint4_linear_144_2642)"/>
<path d="M34.654 61.621C35.1681 61.023 35.8946 60.4469 37.1206 59.5259L39.6686 57.8979L40.9829 60.6629C41.6425 62.0505 41.9055 63.1108 41.9742 63.9444C42.0423 64.7702 41.9242 65.4228 41.7549 66.0132C41.2245 67.863 40.2757 68.8455 39.3136 69.33C38.3256 69.8276 37.2183 69.8528 36.3148 69.5937C34.9579 69.2046 34.1469 68.2859 33.7229 67.1902C33.2867 66.0627 33.2807 64.7839 33.5507 63.8424C33.8503 62.7976 34.1706 62.1833 34.654 61.621Z" stroke="url(#paint5_linear_144_2642)" stroke-width="2"/>
</g>
<g filter="url(#filter3_bd_144_2642)">
<path d="M55.8599 58.7036L58.6015 56.9519C59.0226 56.6828 59.5843 56.8438 59.7989 57.2952L61.1956 60.2336C62.5963 63.1802 62.4111 64.945 62.0257 66.2888C60.8312 70.4546 57.572 71.1925 55.3488 70.555C51.9398 69.5775 51.2439 65.8513 51.899 63.5668C52.554 61.2823 53.407 60.5452 55.8599 58.7036Z" fill="url(#paint6_linear_144_2642)"/>
<path d="M53.9636 61.621C54.4776 61.023 55.2042 60.4469 56.4302 59.5259L58.9782 57.8979L60.2925 60.6629C60.9521 62.0505 61.2151 63.1108 61.2838 63.9444C61.3519 64.7702 61.2338 65.4228 61.0645 66.0132C60.534 67.863 59.5853 68.8455 58.6232 69.33C57.6352 69.8276 56.5278 69.8528 55.6244 69.5937C54.2674 69.2046 53.4565 68.2859 53.0325 67.1902C52.5962 66.0627 52.5903 64.7839 52.8602 63.8424C53.1598 62.7976 53.4802 62.1833 53.9636 61.621Z" stroke="url(#paint7_linear_144_2642)" stroke-width="2"/>
</g>
<defs>
<filter id="filter0_b_144_2642" x="3.48414" y="10.4841" width="53.0317" height="35.0317" filterUnits="userSpaceOnUse" color-interpolation-filters="sRGB">
<feFlood flood-opacity="0" result="BackgroundImageFix"/>
<feGaussianBlur in="BackgroundImageFix" stdDeviation="1.25793"/>
<feComposite in2="SourceAlpha" operator="in" result="effect1_backgroundBlur_144_2642"/>
<feBlend mode="normal" in="SourceGraphic" in2="effect1_backgroundBlur_144_2642" result="shape"/>
</filter>
<filter id="filter1_bd_144_2642" x="9" y="17" width="72.5" height="48" filterUnits="userSpaceOnUse" color-interpolation-filters="sRGB">
<feFlood flood-opacity="0" result="BackgroundImageFix"/>
<feGaussianBlur in="BackgroundImageFix" stdDeviation="1.75"/>
<feComposite in2="SourceAlpha" operator="in" result="effect1_backgroundBlur_144_2642"/>
<feColorMatrix in="SourceAlpha" type="matrix" values="0 0 0 0 0 0 0 0 0 0 0 0 0 0 0 0 0 0 127 0" result="hardAlpha"/>
<feOffset dx="-3" dy="1"/>
<feGaussianBlur stdDeviation="2.5"/>
<feComposite in2="hardAlpha" operator="out"/>
<feColorMatrix type="matrix" values="0 0 0 0 0.452751 0 0 0 0 0.452751 0 0 0 0 0.452751 0 0 0 0.2 0"/>
<feBlend mode="normal" in2="effect1_backgroundBlur_144_2642" result="effect2_dropShadow_144_2642"/>
<feBlend mode="normal" in="SourceGraphic" in2="effect2_dropShadow_144_2642" result="shape"/>
</filter>
<filter id="filter2_bd_144_2642" x="26.3677" y="52.821" width="20.6262" height="23.9351" filterUnits="userSpaceOnUse" color-interpolation-filters="sRGB">
<feFlood flood-opacity="0" result="BackgroundImageFix"/>
<feGaussianBlur in="BackgroundImageFix" stdDeviation="1.6613"/>
<feComposite in2="SourceAlpha" operator="in" result="effect1_backgroundBlur_144_2642"/>
<feColorMatrix in="SourceAlpha" type="matrix" values="0 0 0 0 0 0 0 0 0 0 0 0 0 0 0 0 0 0 127 0" result="hardAlpha"/>
<feOffset dx="-1" dy="1"/>
<feGaussianBlur stdDeviation="2.5"/>
<feComposite in2="hardAlpha" operator="out"/>
<feColorMatrix type="matrix" values="0 0 0 0 0.45098 0 0 0 0 0.45098 0 0 0 0 0.45098 0 0 0 0.2 0"/>
<feBlend mode="normal" in2="effect1_backgroundBlur_144_2642" result="effect2_dropShadow_144_2642"/>
<feBlend mode="normal" in="SourceGraphic" in2="effect2_dropShadow_144_2642" result="shape"/>
</filter>
<filter id="filter3_bd_144_2642" x="45.6772" y="52.821" width="20.6262" height="23.9351" filterUnits="userSpaceOnUse" color-interpolation-filters="sRGB">
<feFlood flood-opacity="0" result="BackgroundImageFix"/>
<feGaussianBlur in="BackgroundImageFix" stdDeviation="1.6613"/>
<feComposite in2="SourceAlpha" operator="in" result="effect1_backgroundBlur_144_2642"/>
<feColorMatrix in="SourceAlpha" type="matrix" values="0 0 0 0 0 0 0 0 0 0 0 0 0 0 0 0 0 0 127 0" result="hardAlpha"/>
<feOffset dx="-1" dy="1"/>
<feGaussianBlur stdDeviation="2.5"/>
<feComposite in2="hardAlpha" operator="out"/>
<feColorMatrix type="matrix" values="0 0 0 0 0.45098 0 0 0 0 0.45098 0 0 0 0 0.45098 0 0 0 0.2 0"/>
<feBlend mode="normal" in2="effect1_backgroundBlur_144_2642" result="effect2_dropShadow_144_2642"/>
<feBlend mode="normal" in="SourceGraphic" in2="effect2_dropShadow_144_2642" result="shape"/>
</filter>
<linearGradient id="paint0_linear_144_2642" x1="20.5" y1="15.5" x2="46.3029" y2="45.1075" gradientUnits="userSpaceOnUse">
<stop stop-color="#007ADF" stop-opacity="0.8"/>
<stop offset="1" stop-color="#007ADF"/>
</linearGradient>
<linearGradient id="paint1_linear_144_2642" x1="30" y1="13" x2="30" y2="43" gradientUnits="userSpaceOnUse">
<stop stop-color="white" stop-opacity="0.1"/>
<stop offset="0.51" stop-color="white" stop-opacity="0.1"/>
<stop offset="1" stop-opacity="0.01"/>
</linearGradient>
<linearGradient id="paint2_linear_144_2642" x1="37" y1="26" x2="66.6013" y2="59.7873" gradientUnits="userSpaceOnUse">
<stop stop-color="#00B7E0"/>
<stop offset="1" stop-color="#48BED9" stop-opacity="0.7"/>
</linearGradient>
<linearGradient id="paint3_linear_144_2642" x1="47.5" y1="21" x2="47.5" y2="59" gradientUnits="userSpaceOnUse">
<stop stop-color="white" stop-opacity="0.1"/>
<stop offset="0.51" stop-color="white" stop-opacity="0.1"/>
<stop offset="1" stop-opacity="0.01"/>
</linearGradient>
<linearGradient id="paint4_linear_144_2642" x1="40.0852" y1="56.445" x2="36.0392" y2="70.555" gradientUnits="userSpaceOnUse">
<stop stop-color="#CAF6FF"/>
<stop offset="1" stop-color="#A3DFEC"/>
</linearGradient>
<linearGradient id="paint5_linear_144_2642" x1="40.3139" y1="55.1522" x2="36.0732" y2="70.3578" gradientUnits="userSpaceOnUse">
<stop stop-color="white"/>
<stop offset="1" stop-color="white" stop-opacity="0"/>
</linearGradient>
<linearGradient id="paint6_linear_144_2642" x1="59.3948" y1="56.445" x2="55.3488" y2="70.555" gradientUnits="userSpaceOnUse">
<stop stop-color="#CAF6FF"/>
<stop offset="1" stop-color="#A3DFEC"/>
</linearGradient>
<linearGradient id="paint7_linear_144_2642" x1="59.6235" y1="55.1522" x2="55.3827" y2="70.3578" gradientUnits="userSpaceOnUse">
<stop stop-color="white"/>
<stop offset="1" stop-color="white" stop-opacity="0"/>
</linearGradient>
</defs>
</svg>
