<svg width="84" height="85" fill="none" xmlns="http://www.w3.org/2000/svg">
    <g filter="url(#a)">
        <mask id="d" fill="#fff">
            <path fill-rule="evenodd" clip-rule="evenodd" d="M45.385 36C50.143 36 54 32.24 54 27.6c0-4.64-3.857-8.4-8.615-8.4h-.11C44.363 11.766 37.872 6 30 6c-7.872 0-14.363 5.765-15.275 13.2h-.11C9.857 19.2 6 22.96 6 27.6c0 4.64 3.857 8.4 8.615 8.4h30.77Z"/>
        </mask>
        <path fill-rule="evenodd" clip-rule="evenodd" d="M45.385 36C50.143 36 54 32.24 54 27.6c0-4.64-3.857-8.4-8.615-8.4h-.11C44.363 11.766 37.872 6 30 6c-7.872 0-14.363 5.765-15.275 13.2h-.11C9.857 19.2 6 22.96 6 27.6c0 4.64 3.857 8.4 8.615 8.4h30.77Z" fill="url(#b)"/>
        <path d="M45.385 36v-2h-1.499l-.42 1.438 1.919.562Zm-.11-16.8-1.985.244.218 1.778 1.791-.022-.024-2Zm-30.55 0-.024 2 1.791.022.218-1.778-1.985-.243Zm-.11 16.8 2-.049L16.567 34h-1.952v2Zm0 0-1.999.049.048 1.951h1.951v-2Zm15.356 0 .003-2h-.003v2Zm.058 0v-2h-.003l.003 2Zm15.356 0v2h1.498l.421-1.438-1.92-.562ZM52 27.6c0 3.487-2.914 6.4-6.615 6.4v4C51.199 38 56 33.39 56 27.6h-4Zm-6.615-6.4c3.701 0 6.615 2.913 6.615 6.4h4c0-5.791-4.8-10.4-10.615-10.4v4Zm-.086 0h.086v-4h-.134l.048 4ZM30 8c6.889 0 12.504 5.038 13.29 11.444l3.97-.487C46.222 10.491 38.855 4 30 4v4ZM16.71 19.444C17.496 13.038 23.111 8 30 8V4c-8.855 0-16.222 6.491-17.26 14.957l3.97.487ZM14.615 21.2h.086l.048-4h-.134v4ZM8 27.6c0-3.487 2.914-6.4 6.615-6.4v-4C8.801 17.2 4 21.809 4 27.6h4Zm6.615 6.4C10.914 34 8 31.087 8 27.6H4C4 33.39 8.8 38 14.615 38v-4Zm2 1.951-3.999.098 3.999-.098ZM29.97 34H14.615v4h15.356v-4ZM30 34h-.026l-.007 4H30v-4Zm.026 0H30v4h.033l-.007-4Zm15.359 0H30.029v4h15.356v-4Zm-1.92 1.438 3.84 1.124-3.84-1.124Z" fill="url(#c)" mask="url(#d)"/>
    </g>
    <g filter="url(#e)">
        <mask id="h" fill="#fff">
            <path fill-rule="evenodd" clip-rule="evenodd" d="M27.949 52C21.902 52 17 47.236 17 41.36s4.902-10.64 10.949-10.64h.139C29.247 21.303 37.496 14 47.5 14s18.253 7.302 19.412 16.72h.14C73.097 30.72 78 35.484 78 41.36S73.098 52 67.051 52H27.95Z"/>
        </mask>
        <path fill-rule="evenodd" clip-rule="evenodd" d="M27.949 52C21.902 52 17 47.236 17 41.36s4.902-10.64 10.949-10.64h.139C29.247 21.303 37.496 14 47.5 14s18.253 7.302 19.412 16.72h.14C73.097 30.72 78 35.484 78 41.36S73.098 52 67.051 52H27.95Z" fill="url(#f)" fill-opacity=".7" shape-rendering="crispEdges"/>
        <path d="m27.949 52 1.989.207.23-2.207h-2.22v2Zm.139-21.28-.024 2 1.79.022.219-1.777-1.985-.244Zm38.824 0-1.985.245.219 1.777 1.79-.021-.024-2Zm.14 21.28v-2h-2v2h2Zm0 0v2h2v-2h-2Zm-39.103 0-1.99-.207L25.73 54h2.22v-2Zm0-2C22.952 50 19 46.078 19 41.36h-4C15 48.394 20.852 54 27.949 54v-4ZM19 41.36c0-4.718 3.952-8.64 8.949-8.64v-4C20.852 28.72 15 34.325 15 41.36h4Zm8.949-8.64h.115l.048-4h-.163v4Zm2.124-1.755C31.104 22.581 38.473 16 47.5 16v-4c-10.982 0-20.111 8.023-21.397 18.477l3.97.488ZM47.5 16c9.026 0 16.396 6.58 17.427 14.965l3.97-.488C67.611 20.023 58.482 12 47.5 12v4Zm19.436 16.72h.115v-4l-.163.001.048 4Zm.115 0c4.997 0 8.949 3.922 8.949 8.64h4c0-7.034-5.852-12.64-12.949-12.64v4ZM76 41.36c0 4.718-3.952 8.64-8.949 8.64v4C74.148 54 80 48.394 80 41.36h-4ZM67.051 50v4-4Zm-2 2h4-4Zm2-2H27.95v4H67.05v-4Zm-37.113 2.207-3.979-.414 3.979.414Z" fill="url(#g)" mask="url(#h)"/>
    </g>
    <g filter="url(#i)">
        <path d="m28.018 50.532 2.578-1.647a.83.83 0 0 1 1.198.343l1.313 2.764c1.336 2.81 1.16 4.493.792 5.775-1.14 3.973-4.248 4.677-6.368 4.069-3.252-.932-3.915-4.486-3.29-6.665.624-2.18 1.438-2.882 3.777-4.639Z" fill="url(#j)"/>
        <path d="M26.245 53.345c.486-.566 1.174-1.112 2.343-1.99l2.385-1.524 1.231 2.59c.627 1.32.876 2.325.941 3.114a5.246 5.246 0 0 1-.207 1.956c-.503 1.754-1.4 2.68-2.305 3.135-.93.469-1.975.493-2.827.249-1.278-.367-2.041-1.231-2.441-2.265-.413-1.066-.418-2.275-.163-3.164.284-.992.587-1.571 1.043-2.101Z" stroke="url(#k)" stroke-width="2"/>
    </g>
    <g filter="url(#l)">
        <path d="m46.435 50.532 2.578-1.647a.83.83 0 0 1 1.198.343l1.313 2.764c1.336 2.81 1.16 4.493.792 5.775-1.14 3.973-4.248 4.677-6.369 4.069-3.25-.932-3.915-4.486-3.29-6.665.625-2.18 1.438-2.882 3.778-4.639Z" fill="url(#m)"/>
        <path d="M44.661 53.345c.486-.566 1.175-1.112 2.344-1.99l2.385-1.524 1.23 2.59c.628 1.32.877 2.325.942 3.114a5.244 5.244 0 0 1-.208 1.956c-.502 1.754-1.4 2.68-2.304 3.135-.93.469-1.975.493-2.827.249-1.278-.367-2.042-1.231-2.442-2.265-.412-1.066-.417-2.275-.163-3.164.285-.992.588-1.571 1.043-2.101Z" stroke="url(#n)" stroke-width="2"/>
    </g>
    <g filter="url(#o)">
        <path d="m34.435 66.532 2.578-1.647a.83.83 0 0 1 1.198.343l1.313 2.764c1.336 2.81 1.16 4.493.792 5.775-1.14 3.973-4.248 4.677-6.369 4.069-3.25-.933-3.915-4.486-3.29-6.665.625-2.18 1.438-2.882 3.778-4.639Z" fill="url(#p)"/>
        <path d="M32.661 69.345c.486-.566 1.175-1.112 2.344-1.99l2.385-1.524 1.23 2.59c.628 1.32.877 2.325.942 3.114a5.244 5.244 0 0 1-.208 1.956c-.502 1.754-1.4 2.68-2.304 3.135-.93.469-1.975.493-2.827.249-1.278-.367-2.042-1.231-2.442-2.265-.412-1.066-.418-2.275-.163-3.164.285-.992.588-1.571 1.043-2.101Z" stroke="url(#q)" stroke-width="2"/>
    </g>
    <g filter="url(#r)">
        <path d="m65.435 50.532 2.578-1.647a.83.83 0 0 1 1.197.343l1.314 2.764c1.336 2.81 1.16 4.493.792 5.775-1.14 3.973-4.248 4.677-6.369 4.069-3.25-.932-3.915-4.486-3.29-6.665.625-2.18 1.438-2.882 3.778-4.639Z" fill="url(#s)"/>
        <path d="M63.661 53.345c.486-.566 1.175-1.112 2.344-1.99l2.385-1.524 1.23 2.59c.628 1.32.877 2.325.942 3.114a5.244 5.244 0 0 1-.208 1.956c-.502 1.754-1.4 2.68-2.304 3.135-.93.469-1.975.493-2.827.249-1.278-.367-2.042-1.231-2.442-2.265-.412-1.066-.417-2.275-.163-3.164.285-.992.588-1.571 1.043-2.101Z" stroke="url(#t)" stroke-width="2"/>
    </g>
    <g filter="url(#u)">
        <path d="m54.435 66.532 2.578-1.647a.83.83 0 0 1 1.198.343l1.313 2.764c1.336 2.81 1.16 4.493.792 5.775-1.14 3.973-4.248 4.677-6.369 4.069-3.25-.933-3.915-4.486-3.29-6.665.625-2.18 1.438-2.882 3.778-4.639Z" fill="url(#v)"/>
        <path d="M52.661 69.345c.486-.566 1.175-1.112 2.344-1.99l2.385-1.524 1.23 2.59c.628 1.32.877 2.325.942 3.114a5.244 5.244 0 0 1-.208 1.956c-.502 1.754-1.4 2.68-2.304 3.135-.93.469-1.975.493-2.827.249-1.278-.367-2.042-1.231-2.442-2.265-.412-1.066-.417-2.275-.163-3.164.285-.992.588-1.571 1.043-2.101Z" stroke="url(#w)" stroke-width="2"/>
    </g>
    <defs>
        <linearGradient id="b" x1="20.5" y1="8.5" x2="46.303" y2="38.108" gradientUnits="userSpaceOnUse">
            <stop stop-color="#007ADF" stop-opacity=".8"/>
            <stop offset="1" stop-color="#007ADF"/>
        </linearGradient>
        <linearGradient id="c" x1="30" y1="6" x2="30" y2="36" gradientUnits="userSpaceOnUse">
            <stop stop-color="#fff" stop-opacity=".1"/>
            <stop offset=".51" stop-color="#fff" stop-opacity=".1"/>
            <stop offset="1" stop-opacity=".01"/>
        </linearGradient>
        <linearGradient id="f" x1="37" y1="19" x2="66.601" y2="52.787" gradientUnits="userSpaceOnUse">
            <stop stop-color="#00B7E0"/>
            <stop offset="1" stop-color="#48BED9" stop-opacity=".7"/>
        </linearGradient>
        <linearGradient id="g" x1="47.5" y1="14" x2="47.5" y2="52" gradientUnits="userSpaceOnUse">
            <stop stop-color="#fff" stop-opacity=".1"/>
            <stop offset=".51" stop-color="#fff" stop-opacity=".1"/>
            <stop offset="1" stop-opacity=".01"/>
        </linearGradient>
        <linearGradient id="j" x1="31.39" y1="48.378" x2="27.531" y2="61.836" gradientUnits="userSpaceOnUse">
            <stop stop-color="#CAF6FF"/>
            <stop offset="1" stop-color="#A3DFEC"/>
        </linearGradient>
        <linearGradient id="k" x1="31.608" y1="47.145" x2="27.563" y2="61.648" gradientUnits="userSpaceOnUse">
            <stop stop-color="#fff"/>
            <stop offset="1" stop-color="#fff" stop-opacity="0"/>
        </linearGradient>
        <linearGradient id="m" x1="49.806" y1="48.378" x2="45.947" y2="61.836" gradientUnits="userSpaceOnUse">
            <stop stop-color="#CAF6FF"/>
            <stop offset="1" stop-color="#A3DFEC"/>
        </linearGradient>
        <linearGradient id="n" x1="50.025" y1="47.145" x2="45.98" y2="61.648" gradientUnits="userSpaceOnUse">
            <stop stop-color="#fff"/>
            <stop offset="1" stop-color="#fff" stop-opacity="0"/>
        </linearGradient>
        <linearGradient id="p" x1="37.806" y1="64.378" x2="33.947" y2="77.836" gradientUnits="userSpaceOnUse">
            <stop stop-color="#CAF6FF"/>
            <stop offset="1" stop-color="#A3DFEC"/>
        </linearGradient>
        <linearGradient id="q" x1="38.025" y1="63.145" x2="33.98" y2="77.648" gradientUnits="userSpaceOnUse">
            <stop stop-color="#fff"/>
            <stop offset="1" stop-color="#fff" stop-opacity="0"/>
        </linearGradient>
        <linearGradient id="s" x1="68.806" y1="48.378" x2="64.947" y2="61.836" gradientUnits="userSpaceOnUse">
            <stop stop-color="#CAF6FF"/>
            <stop offset="1" stop-color="#A3DFEC"/>
        </linearGradient>
        <linearGradient id="t" x1="69.025" y1="47.145" x2="64.98" y2="61.648" gradientUnits="userSpaceOnUse">
            <stop stop-color="#fff"/>
            <stop offset="1" stop-color="#fff" stop-opacity="0"/>
        </linearGradient>
        <linearGradient id="v" x1="57.806" y1="64.378" x2="53.947" y2="77.836" gradientUnits="userSpaceOnUse">
            <stop stop-color="#CAF6FF"/>
            <stop offset="1" stop-color="#A3DFEC"/>
        </linearGradient>
        <linearGradient id="w" x1="58.025" y1="63.145" x2="53.98" y2="77.648" gradientUnits="userSpaceOnUse">
            <stop stop-color="#fff"/>
            <stop offset="1" stop-color="#fff" stop-opacity="0"/>
        </linearGradient>
        <filter id="a" x="3.484" y="3.484" width="53.032" height="35.032" filterUnits="userSpaceOnUse" color-interpolation-filters="sRGB">
            <feFlood flood-opacity="0" result="BackgroundImageFix"/>
            <feGaussianBlur in="BackgroundImageFix" stdDeviation="1.258"/>
            <feComposite in2="SourceAlpha" operator="in" result="effect1_backgroundBlur_140_1035"/>
            <feBlend in="SourceGraphic" in2="effect1_backgroundBlur_140_1035" result="shape"/>
        </filter>
        <filter id="e" x="9" y="10" width="72.5" height="48" filterUnits="userSpaceOnUse" color-interpolation-filters="sRGB">
            <feFlood flood-opacity="0" result="BackgroundImageFix"/>
            <feGaussianBlur in="BackgroundImageFix" stdDeviation="1.75"/>
            <feComposite in2="SourceAlpha" operator="in" result="effect1_backgroundBlur_140_1035"/>
            <feColorMatrix in="SourceAlpha" values="0 0 0 0 0 0 0 0 0 0 0 0 0 0 0 0 0 0 127 0" result="hardAlpha"/>
            <feOffset dx="-3" dy="1"/>
            <feGaussianBlur stdDeviation="2.5"/>
            <feComposite in2="hardAlpha" operator="out"/>
            <feColorMatrix values="0 0 0 0 0.452751 0 0 0 0 0.452751 0 0 0 0 0.452751 0 0 0 0.2 0"/>
            <feBlend in2="effect1_backgroundBlur_140_1035" result="effect2_dropShadow_140_1035"/>
            <feBlend in="SourceGraphic" in2="effect2_dropShadow_140_1035" result="shape"/>
        </filter>
        <filter id="i" x="18.029" y="44.754" width="20.135" height="23.273" filterUnits="userSpaceOnUse" color-interpolation-filters="sRGB">
            <feFlood flood-opacity="0" result="BackgroundImageFix"/>
            <feGaussianBlur in="BackgroundImageFix" stdDeviation="1.661"/>
            <feComposite in2="SourceAlpha" operator="in" result="effect1_backgroundBlur_140_1035"/>
            <feColorMatrix in="SourceAlpha" values="0 0 0 0 0 0 0 0 0 0 0 0 0 0 0 0 0 0 127 0" result="hardAlpha"/>
            <feOffset dx="-1" dy="1"/>
            <feGaussianBlur stdDeviation="2.5"/>
            <feComposite in2="hardAlpha" operator="out"/>
            <feColorMatrix values="0 0 0 0 0.45098 0 0 0 0 0.45098 0 0 0 0 0.45098 0 0 0 0.2 0"/>
            <feBlend in2="effect1_backgroundBlur_140_1035" result="effect2_dropShadow_140_1035"/>
            <feBlend in="SourceGraphic" in2="effect2_dropShadow_140_1035" result="shape"/>
        </filter>
        <filter id="l" x="36.446" y="44.754" width="20.135" height="23.273" filterUnits="userSpaceOnUse" color-interpolation-filters="sRGB">
            <feFlood flood-opacity="0" result="BackgroundImageFix"/>
            <feGaussianBlur in="BackgroundImageFix" stdDeviation="1.661"/>
            <feComposite in2="SourceAlpha" operator="in" result="effect1_backgroundBlur_140_1035"/>
            <feColorMatrix in="SourceAlpha" values="0 0 0 0 0 0 0 0 0 0 0 0 0 0 0 0 0 0 127 0" result="hardAlpha"/>
            <feOffset dx="-1" dy="1"/>
            <feGaussianBlur stdDeviation="2.5"/>
            <feComposite in2="hardAlpha" operator="out"/>
            <feColorMatrix values="0 0 0 0 0.45098 0 0 0 0 0.45098 0 0 0 0 0.45098 0 0 0 0.2 0"/>
            <feBlend in2="effect1_backgroundBlur_140_1035" result="effect2_dropShadow_140_1035"/>
            <feBlend in="SourceGraphic" in2="effect2_dropShadow_140_1035" result="shape"/>
        </filter>
        <filter id="o" x="24.446" y="60.754" width="20.135" height="23.273" filterUnits="userSpaceOnUse" color-interpolation-filters="sRGB">
            <feFlood flood-opacity="0" result="BackgroundImageFix"/>
            <feGaussianBlur in="BackgroundImageFix" stdDeviation="1.661"/>
            <feComposite in2="SourceAlpha" operator="in" result="effect1_backgroundBlur_140_1035"/>
            <feColorMatrix in="SourceAlpha" values="0 0 0 0 0 0 0 0 0 0 0 0 0 0 0 0 0 0 127 0" result="hardAlpha"/>
            <feOffset dx="-1" dy="1"/>
            <feGaussianBlur stdDeviation="2.5"/>
            <feComposite in2="hardAlpha" operator="out"/>
            <feColorMatrix values="0 0 0 0 0.45098 0 0 0 0 0.45098 0 0 0 0 0.45098 0 0 0 0.2 0"/>
            <feBlend in2="effect1_backgroundBlur_140_1035" result="effect2_dropShadow_140_1035"/>
            <feBlend in="SourceGraphic" in2="effect2_dropShadow_140_1035" result="shape"/>
        </filter>
        <filter id="r" x="55.446" y="44.754" width="20.135" height="23.273" filterUnits="userSpaceOnUse" color-interpolation-filters="sRGB">
            <feFlood flood-opacity="0" result="BackgroundImageFix"/>
            <feGaussianBlur in="BackgroundImageFix" stdDeviation="1.661"/>
            <feComposite in2="SourceAlpha" operator="in" result="effect1_backgroundBlur_140_1035"/>
            <feColorMatrix in="SourceAlpha" values="0 0 0 0 0 0 0 0 0 0 0 0 0 0 0 0 0 0 127 0" result="hardAlpha"/>
            <feOffset dx="-1" dy="1"/>
            <feGaussianBlur stdDeviation="2.5"/>
            <feComposite in2="hardAlpha" operator="out"/>
            <feColorMatrix values="0 0 0 0 0.45098 0 0 0 0 0.45098 0 0 0 0 0.45098 0 0 0 0.2 0"/>
            <feBlend in2="effect1_backgroundBlur_140_1035" result="effect2_dropShadow_140_1035"/>
            <feBlend in="SourceGraphic" in2="effect2_dropShadow_140_1035" result="shape"/>
        </filter>
        <filter id="u" x="44.446" y="60.754" width="20.135" height="23.273" filterUnits="userSpaceOnUse" color-interpolation-filters="sRGB">
            <feFlood flood-opacity="0" result="BackgroundImageFix"/>
            <feGaussianBlur in="BackgroundImageFix" stdDeviation="1.661"/>
            <feComposite in2="SourceAlpha" operator="in" result="effect1_backgroundBlur_140_1035"/>
            <feColorMatrix in="SourceAlpha" values="0 0 0 0 0 0 0 0 0 0 0 0 0 0 0 0 0 0 127 0" result="hardAlpha"/>
            <feOffset dx="-1" dy="1"/>
            <feGaussianBlur stdDeviation="2.5"/>
            <feComposite in2="hardAlpha" operator="out"/>
            <feColorMatrix values="0 0 0 0 0.45098 0 0 0 0 0.45098 0 0 0 0 0.45098 0 0 0 0.2 0"/>
            <feBlend in2="effect1_backgroundBlur_140_1035" result="effect2_dropShadow_140_1035"/>
            <feBlend in="SourceGraphic" in2="effect2_dropShadow_140_1035" result="shape"/>
        </filter>
    </defs>
</svg>
