<svg width="24" height="24" fill="none" xmlns="http://www.w3.org/2000/svg">
    <path fill-rule="evenodd" clip-rule="evenodd" d="M11.104 3.335c.035-.28.053-.421.022-.541a.65.65 0 0 0-.262-.375c-.102-.07-.24-.101-.516-.164l-.801-.183c-.276-.063-.414-.095-.537-.076a.65.65 0 0 0-.398.223c-.08.095-.125.23-.215.498-.171.508-.257.762-.398.88a.65.65 0 0 1-.644.11c-.172-.065-.337-.277-.666-.7-.174-.224-.26-.336-.367-.4a.65.65 0 0 0-.45-.079c-.122.023-.242.098-.482.25l-.695.436c-.24.15-.36.226-.433.326a.65.65 0 0 0-.124.44c.01.123.074.25.2.504.238.48.358.72.341.904a.65.65 0 0 1-.378.532c-.168.076-.434.043-.966-.024-.281-.035-.422-.053-.542-.022a.65.65 0 0 0-.374.262c-.07.102-.101.24-.164.517l-.183.8c-.063.276-.095.414-.076.537a.65.65 0 0 0 .223.398c.095.08.23.125.498.216.508.17.762.256.88.397a.65.65 0 0 1 .11.644c-.065.173-.277.337-.7.666-.224.174-.336.26-.399.367a.65.65 0 0 0-.08.45c.023.122.099.242.25.482l.436.695c.15.24.226.36.326.433a.65.65 0 0 0 .44.124c.123-.01.25-.073.504-.2.48-.238.72-.357.903-.34a.65.65 0 0 1 .533.377c.076.168.043.434-.024.966-.035.281-.053.422-.022.542a.65.65 0 0 0 .262.374c.102.07.24.101.516.165l.8.182c.277.063.415.095.538.076a.65.65 0 0 0 .398-.223c.08-.095.125-.23.215-.498.171-.508.257-.762.398-.88a.65.65 0 0 1 .644-.11c.173.065.337.277.666.7.174.224.26.336.367.399a.65.65 0 0 0 .45.08c.122-.024.242-.099.482-.25l.695-.436c.24-.151.36-.226.433-.326a.65.65 0 0 0 .124-.44c-.01-.123-.073-.25-.2-.504-.238-.48-.357-.72-.34-.903a.65.65 0 0 1 .378-.533c.167-.076.433-.043.965.024.281.035.421.053.541.022a.65.65 0 0 0 .375-.262c.07-.102.101-.24.164-.516l.183-.8c.063-.277.095-.415.076-.538a.65.65 0 0 0-.223-.398c-.095-.08-.23-.125-.498-.215-.508-.171-.762-.257-.88-.398a.65.65 0 0 1-.11-.644c.065-.172.277-.337.7-.666.224-.174.336-.26.399-.367a.65.65 0 0 0 .08-.45c-.023-.122-.099-.242-.25-.482l-.436-.695c-.15-.24-.226-.36-.326-.433a.65.65 0 0 0-.44-.124c-.123.01-.25.074-.504.2-.48.238-.72.357-.903.34a.65.65 0 0 1-.533-.377c-.076-.168-.043-.434.024-.966Z" fill="url(#a)" fill-opacity=".5"/>
    <g filter="url(#b)">
        <path fill-rule="evenodd" clip-rule="evenodd" d="M14.922 5.225c-.03-.305-.045-.457-.093-.582a1 1 0 0 0-.672-.608C14.028 4 13.875 4 13.57 4H12.43c-.306 0-.46 0-.588.035a1 1 0 0 0-.672.608c-.048.125-.063.277-.093.582-.058.577-.087.865-.18 1.039a1 1 0 0 1-1.175.487c-.188-.058-.413-.241-.861-.608-.237-.194-.356-.292-.478-.346a1 1 0 0 0-.905.045c-.116.066-.224.175-.44.392l-.805.804c-.217.216-.325.325-.392.44a1 1 0 0 0-.045.906c.055.122.152.24.346.478.367.448.55.673.608.861a1 1 0 0 1-.486 1.175c-.174.093-.463.122-1.04.18-.305.03-.457.045-.582.093a1 1 0 0 0-.608.672C4 11.972 4 12.125 4 12.43v1.138c0 .306 0 .46.035.588a1 1 0 0 0 .608.672c.125.048.277.063.582.093.577.058.865.087 1.04.18a1 1 0 0 1 .486 1.175c-.057.188-.241.412-.608.861-.194.237-.291.356-.346.478a1 1 0 0 0 .045.905c.067.116.175.224.392.44l.804.805c.217.217.325.325.441.392a1 1 0 0 0 .905.045c.122-.055.24-.152.478-.346.448-.367.673-.55.861-.608a1 1 0 0 1 1.175.487c.093.174.122.462.18 1.039.03.305.045.457.093.582a1 1 0 0 0 .672.608c.129.035.282.035.588.035h1.138c.306 0 .46 0 .588-.035a1 1 0 0 0 .672-.608c.048-.125.063-.277.094-.582.057-.577.086-.866.178-1.04a1 1 0 0 1 1.176-.486c.188.057.413.24.861.608.237.194.356.29.478.345a1 1 0 0 0 .905-.045c.116-.066.224-.175.44-.391l.805-.805c.217-.216.325-.325.391-.44a1 1 0 0 0 .046-.906c-.055-.121-.152-.24-.346-.477-.367-.449-.55-.673-.608-.861a1 1 0 0 1 .487-1.176c.174-.092.462-.12 1.039-.179.305-.03.457-.045.582-.093a1 1 0 0 0 .608-.672c.035-.129.035-.282.035-.588V12.43c0-.306 0-.46-.035-.588a1 1 0 0 0-.608-.672c-.125-.048-.277-.063-.582-.093-.577-.058-.865-.087-1.04-.18a1 1 0 0 1-.486-1.175c.057-.188.24-.413.608-.861.194-.237.291-.356.346-.478a1 1 0 0 0-.046-.905c-.066-.116-.174-.224-.391-.44l-.804-.805c-.217-.217-.325-.325-.441-.391a1 1 0 0 0-.905-.046c-.122.055-.24.152-.478.346-.449.367-.673.55-.861.608a1 1 0 0 1-1.176-.487c-.092-.174-.12-.462-.179-1.039Z" fill="url(#c)" fill-opacity=".5"/>
        <path d="m16.277 6.751.175.574-.175-.574ZM15.1 6.264l-.53.282.53-.282Zm3.86-.03.425-.424-.424.424Zm-.44-.391.298-.521-.298.52Zm-.905-.046-.245-.547.245.547Zm2.587 2.587.547.245-.547-.245Zm-.437-1.346-.424.424.424-.424Zm.392.441-.521.298.52-.298Zm-.422 3.42-.282.53.282-.53Zm-.487-1.176-.574-.175.574.175Zm2.716 2.12.579-.158-.579.158Zm-.608-.672.214-.56-.214.56Zm0 3.658.214.56-.214-.56Zm.608-.672.58.157-.58-.157Zm-2.716 2.12.574-.175-.574.175Zm.487-1.176-.281-.53.281.53Zm.03 3.86.424.425-.424-.425Zm.391-.44.521.298-.52-.298Zm.046-.906.547-.245-.547.245Zm-2.587 2.587.245-.548-.245.548Zm1.346-.436-.424-.425.424.425Zm-.441.391-.298-.52.298.52Zm-3.42-.422.53.282-.53-.282Zm1.176-.486-.175.573.175-.573Zm-2.12 2.716.158.579-.158-.579Zm.672-.608-.56-.214.56.214Zm-3.658 0-.56.214.56-.214Zm.672.608.157-.579-.157.579Zm-2.12-2.716-.175-.574.175.574Zm1.175.487-.53.281.53-.281Zm-3.86.03.424-.424-.424.424Zm.441.392-.298.52.298-.52Zm.905.045.245.547-.245-.547Zm-2.587-2.587.548.245-.548-.245Zm.437 1.346-.424.424.424-.424Zm-.392-.441-.52.298.52-.298Zm.422-3.42.282-.53-.282.53Zm.487 1.176-.574-.176.574.176Zm-2.716-2.12L4.614 14l-.579.157Zm.608.672.214-.56-.214.56Zm0-3.658.214.56-.214-.56Zm2.108-1.448-.573.176.573-.176Zm-.486 1.175-.282-.53.282.53Zm-.03-3.86.423.424-.424-.424Zm-.393.44.521.299-.52-.298Zm-.045.906.548-.245-.548.245Zm2.587-2.587-.245.548.245-.548Zm-1.346.437-.424-.425.424.425Zm.441-.392.298.52-.298-.52Zm3.42.422-.53-.282.53.282Zm-1.176.487-.176.573.176-.573Zm4.434-2.716L14 4.614l.157-.579Zm.672.608.56-.214-.56.214Zm-2.986-.608-.157-.58.157.58Zm-.672.608-.56-.214.56.214Zm1.26-.043h1.138V3.4H12.43v1.2ZM6.658 7.462l.804-.804-.848-.849-.804.804.848.849ZM4.6 13.569V12.43H3.4v1.138h1.2Zm2.862 5.773-.804-.804-.848.848.804.804.848-.848ZM13.57 21.4H12.43v1.2h1.138v-1.2Zm5.773-2.863-.804.804.848.849.804-.804-.848-.849Zm2.058-6.106v1.138h1.2V12.43h-1.2Zm-2.862-5.773.804.804.848-.848-.804-.804-.848.848Zm-1.78-.98c-.23.189-.383.314-.502.4-.122.09-.16.1-.155.1l.351 1.147c.194-.06.363-.169.511-.277.153-.111.336-.262.555-.44l-.76-.93Zm-2.432-.393c.028.281.051.517.08.704.029.181.07.378.166.557l1.06-.563c.002.004-.017-.03-.04-.18a13.175 13.175 0 0 1-.072-.637l-1.194.119Zm1.775.892a.4.4 0 0 1-.47-.194l-1.06.563a1.6 1.6 0 0 0 1.881.779l-.35-1.148Zm3.285-.367c-.19-.19-.364-.372-.567-.488l-.596 1.041c.029.017.071.052.315.295l.848-.848Zm-1.868.797c.267-.218.312-.248.343-.262l-.49-1.095c-.213.095-.405.259-.613.429l.76.928Zm1.301-1.285a1.6 1.6 0 0 0-1.448-.072l.49 1.095a.4.4 0 0 1 .362.018l.596-1.041Zm1.502 3.92c.17-.208.334-.4.43-.613l-1.096-.49c-.014.03-.044.076-.262.343l.928.76Zm-.98-1.78c.244.244.28.286.296.315l1.041-.596c-.116-.203-.298-.377-.488-.567l-.848.848Zm1.41 1.167a1.6 1.6 0 0 0-.073-1.448l-1.041.596a.4.4 0 0 1 .018.362l1.095.49Zm.083 1.851c-.295-.03-.492-.049-.637-.072-.15-.023-.184-.042-.18-.04l-.563 1.06c.178.095.376.137.557.166.187.029.423.052.704.08l.12-1.194Zm-1.441-1.998c-.18.219-.33.402-.44.555a1.754 1.754 0 0 0-.278.51l1.148.352c-.002.004.01-.033.099-.155.086-.12.211-.272.4-.502l-.93-.76Zm.624 1.887a.4.4 0 0 1-.194-.47l-1.148-.351a1.6 1.6 0 0 0 .779 1.88l.563-1.06ZM22.6 12.43c0-.268.005-.52-.056-.746L21.386 12c.009.032.014.087.014.431h1.2Zm-1.885-.756c.343.034.396.044.428.056l.428-1.12c-.218-.084-.47-.104-.737-.13l-.119 1.194Zm1.829.01a1.6 1.6 0 0 0-.973-1.075l-.428 1.121a.4.4 0 0 1 .243.27l1.158-.316Zm-1.71 3.835c.268-.027.519-.047.737-.13l-.428-1.121c-.032.012-.085.022-.428.056l.12 1.195Zm.566-1.951c0 .344-.005.399-.014.43l1.158.315c.061-.225.056-.477.056-.745h-1.2Zm.171 1.82a1.6 1.6 0 0 0 .973-1.075L21.386 14a.4.4 0 0 1-.243.269l.428 1.12Zm-1.25 1.369a13.13 13.13 0 0 1-.399-.502c-.09-.122-.1-.16-.099-.154l-1.148.35c.06.194.17.363.277.511.111.153.262.336.44.555l.93-.76Zm.394-2.432c-.281.028-.517.051-.703.08-.182.029-.379.07-.557.166l.563 1.06c-.005.002.03-.017.18-.04.145-.023.341-.043.636-.072l-.119-1.194Zm-.892 1.776a.4.4 0 0 1 .195-.47l-.563-1.06a1.6 1.6 0 0 0-.78 1.88l1.148-.35Zm.367 3.284c.19-.19.372-.365.488-.567l-1.041-.597c-.017.03-.052.072-.295.315l.848.849Zm-.797-1.868c.218.266.248.312.262.342l1.095-.49c-.095-.213-.259-.404-.428-.612l-.93.76Zm1.285 1.3a1.6 1.6 0 0 0 .072-1.448l-1.095.49a.4.4 0 0 1-.018.362l1.041.597Zm-3.92 1.503c.208.17.4.334.613.429l.49-1.096c-.03-.013-.076-.044-.343-.262l-.76.929Zm1.78-.98c-.244.244-.286.279-.315.295l.596 1.042c.203-.116.377-.298.567-.488l-.848-.849ZM17.37 20.75a1.6 1.6 0 0 0 1.448-.072l-.596-1.042a.4.4 0 0 1-.362.018l-.49 1.096Zm-1.851.084c.03-.295.049-.492.072-.637.023-.15.042-.184.04-.18l-1.06-.563a1.76 1.76 0 0 0-.166.557c-.029.186-.052.422-.08.704l1.194.12Zm1.998-1.442c-.219-.179-.402-.33-.555-.44a1.756 1.756 0 0 0-.51-.277l-.351 1.147c-.005-.001.032.01.154.1.12.086.272.211.502.399l.76-.929Zm-1.887.625a.4.4 0 0 1 .47-.195l.351-1.147a1.6 1.6 0 0 0-1.88.779l1.06.563ZM13.568 22.6c.27 0 .521.005.747-.056L14 21.386c-.032.009-.087.014-.431.014v1.2Zm.758-1.885c-.035.343-.045.396-.057.428l1.12.428c.084-.218.104-.47.13-.737l-1.194-.12Zm-.011 1.829a1.6 1.6 0 0 0 1.075-.973l-1.121-.428a.4.4 0 0 1-.27.243l.316 1.158Zm-3.835-1.71c.027.268.047.52.13.737l1.121-.428c-.012-.032-.022-.085-.056-.428l-1.195.12Zm1.951.566c-.344 0-.399-.005-.43-.014l-.316 1.158c.226.061.478.056.746.056v-1.2Zm-1.82.171a1.6 1.6 0 0 0 1.074.973L12 21.386a.4.4 0 0 1-.269-.243l-1.12.428Zm-1.37-1.25c.23-.188.384-.313.503-.4.122-.089.16-.1.155-.098l-.351-1.148c-.194.06-.363.169-.511.277-.153.111-.336.262-.555.44l.76.93Zm2.434.394c-.029-.281-.052-.517-.081-.704a1.757 1.757 0 0 0-.166-.557l-1.06.563c-.002-.004.017.03.04.18.023.145.043.342.072.637l1.194-.119Zm-1.776-.892a.4.4 0 0 1 .47.194l1.06-.563a1.6 1.6 0 0 0-1.881-.779l.35 1.148Zm-3.285.367c.19.19.364.372.567.488l.596-1.041c-.029-.017-.071-.052-.315-.295l-.848.848Zm1.868-.797c-.267.218-.312.248-.343.262l.49 1.095c.213-.095.405-.259.613-.429l-.76-.928ZM7.18 20.678a1.6 1.6 0 0 0 1.448.072l-.49-1.095a.4.4 0 0 1-.362-.018l-.596 1.041Zm-1.502-3.92c-.17.208-.334.4-.43.613l1.096.49c.014-.03.044-.076.262-.343l-.928-.76Zm.98 1.78c-.244-.244-.28-.286-.296-.315l-1.041.596c.116.203.298.377.488.567l.848-.848Zm-1.41-1.167a1.6 1.6 0 0 0 .073 1.448l1.041-.596a.4.4 0 0 1-.018-.362l-1.095-.49Zm-.083-1.851c.295.03.492.049.637.072.15.023.184.042.18.04l.563-1.06a1.754 1.754 0 0 0-.557-.166c-.187-.029-.423-.052-.704-.08l-.12 1.194Zm1.441 1.998c.18-.219.33-.402.44-.555.11-.148.219-.317.278-.51L6.177 16.1c.002-.005-.01.033-.099.155-.086.12-.211.272-.4.502l.93.76Zm-.624-1.887a.4.4 0 0 1 .194.47l1.148.351a1.6 1.6 0 0 0-.78-1.88l-.562 1.06ZM3.4 13.57c0 .268-.005.52.056.745L4.614 14c-.009-.032-.014-.087-.014-.431H3.4Zm1.885.756c-.343-.034-.397-.044-.428-.056l-.428 1.12c.218.084.47.104.737.13l.119-1.194Zm-1.829-.01a1.6 1.6 0 0 0 .973 1.075l.428-1.121a.4.4 0 0 1-.243-.27l-1.158.316Zm1.71-3.835c-.268.027-.52.047-.737.13l.428 1.121c.031-.012.085-.022.428-.056l-.12-1.195ZM4.6 12.431c0-.344.005-.399.014-.43l-1.158-.316c-.061.226-.056.478-.056.746h1.2Zm-.171-1.82a1.6 1.6 0 0 0-.973 1.074L4.614 12a.4.4 0 0 1 .243-.269l-.428-1.12Zm1.25-1.37c.188.23.313.384.4.503.09.122.1.16.099.155l1.147-.351a1.756 1.756 0 0 0-.277-.511c-.111-.153-.261-.336-.44-.555l-.93.76Zm-.394 2.434c.281-.029.518-.052.704-.081.182-.029.379-.07.557-.166l-.563-1.06c.005-.002-.03.017-.18.04-.145.023-.342.043-.637.072l.12 1.194Zm.893-1.776a.4.4 0 0 1-.195.47l.563 1.06a1.6 1.6 0 0 0 .78-1.881l-1.148.35ZM5.81 6.613c-.19.19-.372.365-.488.568l1.041.596c.017-.03.052-.071.295-.315l-.848-.849Zm.798 1.869c-.219-.267-.25-.313-.263-.343l-1.095.49c.095.213.259.405.429.613l.929-.76ZM5.322 7.18a1.6 1.6 0 0 0-.072 1.447l1.095-.49a.4.4 0 0 1 .018-.361L5.322 7.18Zm3.92-1.503c-.208-.17-.4-.334-.613-.429l-.49 1.096c.03.013.076.044.343.262l.76-.929Zm-1.78.98c.244-.244.286-.279.315-.295L7.181 5.32c-.203.116-.377.298-.567.488l.848.849ZM8.63 5.249a1.6 1.6 0 0 0-1.448.072l.596 1.042a.4.4 0 0 1 .362-.018l.49-1.096Zm1.851-.084c-.03.296-.049.492-.072.638-.023.15-.042.184-.04.18l1.06.562c.095-.178.137-.375.166-.557.029-.186.052-.422.08-.703l-1.194-.12ZM8.482 6.607c.219.18.402.33.555.44.148.109.317.218.51.277L9.9 6.177c.004.001-.033-.01-.155-.1a13.11 13.11 0 0 1-.502-.399l-.76.93Zm1.887-.625a.4.4 0 0 1-.47.195l-.352 1.147a1.6 1.6 0 0 0 1.881-.779l-1.06-.563Zm3.2-1.382c.344 0 .399.005.43.014l.316-1.158c-.226-.061-.478-.056-.746-.056v1.2Zm1.95.566c-.026-.268-.046-.519-.13-.737l-1.12.428c.012.031.022.085.056.428l1.195-.12ZM14 4.614a.4.4 0 0 1 .27.243l1.12-.428a1.6 1.6 0 0 0-1.074-.973L14 4.614ZM12.432 3.4c-.268 0-.52-.005-.745.056L12 4.614c.032-.009.087-.014.431-.014V3.4Zm-.756 1.885c.034-.343.044-.396.056-.428l-1.12-.428c-.084.218-.104.47-.13.736l1.194.12Zm.01-1.83a1.6 1.6 0 0 0-1.075.974l1.121.428a.4.4 0 0 1 .27-.243l-.315-1.158Z" fill="url(#d)"/>
    </g>
    <g filter="url(#e)">
        <circle cx="13" cy="13" r="3" stroke="#FBFFFE" stroke-opacity=".3" stroke-width="1.5"/>
    </g>
    <defs>
        <linearGradient id="a" x1="5.5" y1="3.5" x2="12.5" y2="13.5" gradientUnits="userSpaceOnUse">
            <stop stop-color="#027CEF"/>
            <stop offset="1" stop-color="#027CEF"/>
        </linearGradient>
        <linearGradient id="d" x1="13" y1="4" x2="13" y2="22" gradientUnits="userSpaceOnUse">
            <stop stop-color="#fff" stop-opacity=".1"/>
            <stop offset=".51" stop-color="#fff" stop-opacity=".1"/>
            <stop offset="1" stop-opacity=".01"/>
        </linearGradient>
        <filter id="b" x="-.6" y="-.6" width="27.2" height="27.2" filterUnits="userSpaceOnUse" color-interpolation-filters="sRGB">
            <feFlood flood-opacity="0" result="BackgroundImageFix"/>
            <feGaussianBlur in="BackgroundImageFix" stdDeviation="2"/>
            <feComposite in2="SourceAlpha" operator="in" result="effect1_backgroundBlur_133_1237"/>
            <feBlend in="SourceGraphic" in2="effect1_backgroundBlur_133_1237" result="shape"/>
        </filter>
        <filter id="e" x="5.25" y="5.25" width="15.5" height="15.5" filterUnits="userSpaceOnUse" color-interpolation-filters="sRGB">
            <feFlood flood-opacity="0" result="BackgroundImageFix"/>
            <feGaussianBlur in="BackgroundImageFix" stdDeviation="2"/>
            <feComposite in2="SourceAlpha" operator="in" result="effect1_backgroundBlur_133_1237"/>
            <feBlend in="SourceGraphic" in2="effect1_backgroundBlur_133_1237" result="shape"/>
            <feColorMatrix in="SourceAlpha" values="0 0 0 0 0 0 0 0 0 0 0 0 0 0 0 0 0 0 127 0" result="hardAlpha"/>
            <feOffset/>
            <feGaussianBlur stdDeviation=".75"/>
            <feComposite in2="hardAlpha" operator="arithmetic" k2="-1" k3="1"/>
            <feColorMatrix values="0 0 0 0 1 0 0 0 0 1 0 0 0 0 1 0 0 0 1 0"/>
            <feBlend in2="shape" result="effect2_innerShadow_133_1237"/>
        </filter>
        <radialGradient id="c" cx="0" cy="0" r="1" gradientUnits="userSpaceOnUse" gradientTransform="matrix(0 8.55 -8.55 0 13 13.45)">
            <stop stop-color="#00B865"/>
            <stop offset="1" stop-color="#00B865" stop-opacity=".8"/>
        </radialGradient>
    </defs>
</svg>
