<svg width="24" height="24" viewBox="0 0 24 24" fill="none" xmlns="http://www.w3.org/2000/svg">
<path fill-rule="evenodd" clip-rule="evenodd" d="M11.1039 3.33515C11.1392 3.05407 11.1568 2.91354 11.126 2.79361C11.0868 2.64127 10.9938 2.5083 10.864 2.41936C10.7619 2.34933 10.6238 2.3178 10.3476 2.25472L9.54686 2.07182C9.27076 2.00876 9.13271 1.97724 9.01034 1.99596C8.85482 2.01976 8.71321 2.09916 8.61178 2.21944C8.53197 2.31407 8.48686 2.4483 8.39664 2.71675C8.22587 3.22489 8.14049 3.47896 7.9991 3.59678C7.81964 3.74633 7.57373 3.78807 7.35496 3.70613C7.18261 3.64156 7.01814 3.42987 6.68918 3.00647C6.51533 2.78271 6.42841 2.67083 6.32179 2.60783C6.1864 2.52781 6.02658 2.49961 5.87197 2.52843C5.75023 2.55113 5.63028 2.62647 5.39037 2.77717L4.69503 3.21394C4.45502 3.3647 4.33501 3.44008 4.2617 3.53996C4.16867 3.66668 4.12472 3.82282 4.13799 3.97945C4.14844 4.10291 4.21151 4.22983 4.33765 4.48367C4.57638 4.96407 4.69574 5.20427 4.679 5.38768C4.65779 5.62016 4.51353 5.82341 4.30107 5.92016C4.13347 5.99648 3.86736 5.96308 3.33513 5.89627C3.05396 5.86097 2.91337 5.84333 2.7934 5.87418C2.64113 5.91335 2.50821 6.00638 2.41928 6.13604C2.34922 6.2382 2.31767 6.37633 2.25457 6.6526L2.07171 7.45322C2.00864 7.72938 1.9771 7.86746 1.99585 7.98985C2.01965 8.14534 2.09903 8.28691 2.21927 8.38833C2.31392 8.46816 2.44818 8.51328 2.71669 8.60352C3.22494 8.77433 3.47906 8.85973 3.59689 9.00116C3.74639 9.1806 3.78812 9.42645 3.70622 9.64518C3.64166 9.81757 3.42996 9.98205 3.00656 10.311C2.78288 10.4848 2.67103 10.5717 2.60803 10.6783C2.528 10.8137 2.49978 10.9735 2.52862 11.1282C2.55132 11.2499 2.62666 11.3698 2.77733 11.6097L3.2142 12.3052C3.36489 12.5451 3.44024 12.6651 3.54005 12.7384C3.66682 12.8314 3.82304 12.8754 3.97975 12.8621C4.10314 12.8516 4.23 12.7886 4.4837 12.6625C4.96393 12.4239 5.20404 12.3046 5.38739 12.3213C5.61995 12.3425 5.82327 12.4868 5.92001 12.6993C5.99629 12.8669 5.96289 13.1329 5.8961 13.665C5.86082 13.9461 5.84317 14.0867 5.87401 14.2066C5.91317 14.3589 6.00623 14.4919 6.13593 14.5808C6.23807 14.6509 6.37617 14.6824 6.65238 14.7455L7.45294 14.9283C7.72922 14.9914 7.86735 15.023 7.9898 15.0042C8.14521 14.9804 8.28672 14.9011 8.38811 14.7809C8.46799 14.6862 8.51314 14.5519 8.60343 14.2832C8.77428 13.7748 8.8597 13.5206 9.00115 13.4028C9.18058 13.2533 9.42641 13.2116 9.64512 13.2935C9.81753 13.3581 9.98202 13.5698 10.311 13.9932C10.4848 14.2169 10.5717 14.3288 10.6783 14.3918C10.8137 14.4718 10.9735 14.5 11.1282 14.4712C11.2499 14.4485 11.3698 14.3731 11.6097 14.2224L12.3053 13.7855C12.5451 13.6349 12.665 13.5596 12.7383 13.4598C12.8315 13.333 12.8754 13.1767 12.8621 13.0199C12.8516 12.8966 12.7886 12.7698 12.6626 12.5162C12.4241 12.0362 12.3048 11.7962 12.3215 11.613C12.3426 11.3803 12.487 11.1768 12.6997 11.0801C12.8672 11.0039 13.1331 11.0373 13.665 11.1041C13.946 11.1393 14.0865 11.157 14.2064 11.1262C14.3588 11.087 14.4918 10.9939 14.5808 10.8641C14.6508 10.762 14.6823 10.624 14.7453 10.3479L14.9282 9.54714C14.9913 9.27093 15.0229 9.13282 15.0041 9.0104C14.9803 8.85495 14.9009 8.71341 14.7807 8.612C14.6861 8.53215 14.5518 8.48702 14.2832 8.39676C13.7749 8.22592 13.5207 8.1405 13.4028 7.99902C13.2534 7.81961 13.2117 7.57382 13.2935 7.35514C13.3581 7.1827 13.5698 7.01818 13.9933 6.68915C14.2171 6.51531 14.329 6.4284 14.392 6.32177C14.472 6.18638 14.5002 6.02658 14.4713 5.87199C14.4487 5.75023 14.3733 5.63027 14.2226 5.39035L13.7858 4.69489C13.6351 4.455 13.5597 4.33506 13.4599 4.26176C13.3331 4.16866 13.1769 4.12469 13.0202 4.13799C12.8968 4.14846 12.77 4.2115 12.5163 4.33757C12.0361 4.57619 11.796 4.6955 11.6126 4.67881C11.3801 4.65763 11.1767 4.51331 11.08 4.30074C11.0037 4.13319 11.0371 3.86717 11.1039 3.33515Z" fill="url(#paint0_linear_133_1237)" fill-opacity="0.5"/>
<g filter="url(#filter0_b_133_1237)">
<path fill-rule="evenodd" clip-rule="evenodd" d="M14.9225 5.22529C14.892 4.92025 14.8768 4.76772 14.8291 4.64307C14.7151 4.3447 14.4655 4.11874 14.1572 4.03499C14.0284 4 13.8752 4 13.5686 4H12.4313C12.1248 4 11.9716 4 11.8429 4.03496C11.5346 4.1187 11.2848 4.34472 11.1708 4.64316C11.1232 4.76777 11.108 4.92024 11.0775 5.22518C11.0198 5.80166 10.991 6.0899 10.8986 6.26377C10.6739 6.68662 10.1809 6.89081 9.72301 6.75072C9.53472 6.69311 9.31047 6.50964 8.86198 6.14269C8.62464 5.9485 8.50598 5.85141 8.38415 5.79695C8.09256 5.66659 7.75625 5.68337 7.47907 5.84209C7.36327 5.90841 7.25488 6.0168 7.03809 6.23359L6.2341 7.03758C6.01722 7.25446 5.90877 7.36291 5.84244 7.47877C5.68379 7.75589 5.66702 8.09211 5.79731 8.38364C5.85178 8.50552 5.94891 8.62423 6.14315 8.86164C6.51031 9.31039 6.69389 9.53476 6.75148 9.7232C6.89139 10.181 6.68731 10.6737 6.2647 10.8984C6.09072 10.9909 5.80228 11.0198 5.2254 11.0775C4.92025 11.108 4.76768 11.1232 4.64299 11.1709C4.34469 11.2849 4.11877 11.5345 4.03501 11.8427C4 11.9715 4 12.1248 4 12.4315V13.5686C4 13.8752 4 14.0284 4.03499 14.1572C4.11874 14.4655 4.3447 14.7151 4.64308 14.8291C4.76772 14.8768 4.92024 14.892 5.22529 14.9225C5.80198 14.9802 6.09032 15.009 6.26424 15.1015C6.68697 15.3262 6.89111 15.8191 6.75111 16.2769C6.69351 16.4653 6.51 16.6895 6.14299 17.1381C5.94885 17.3754 5.85178 17.494 5.79732 17.6159C5.66696 17.9074 5.68373 18.2438 5.84246 18.5209C5.90878 18.6367 6.01717 18.7451 6.23395 18.9619L7.03805 19.766C7.25484 19.9828 7.36323 20.0912 7.47903 20.1575C7.75621 20.3162 8.09252 20.333 8.38411 20.2027C8.50594 20.1482 8.62458 20.0511 8.86187 19.857C9.31045 19.4899 9.53475 19.3064 9.72312 19.2488C10.1809 19.1088 10.6737 19.313 10.8985 19.7357C10.991 19.9096 11.0198 20.198 11.0775 20.7747C11.108 21.0798 11.1232 21.2323 11.1709 21.3569C11.2849 21.6553 11.5345 21.8813 11.8428 21.965C11.9715 22 12.1248 22 12.4314 22H13.5685C13.8752 22 14.0285 22 14.1573 21.965C14.4655 21.8812 14.7151 21.6553 14.8291 21.357C14.8768 21.2323 14.892 21.0797 14.9226 20.7745C14.9802 20.1977 15.0091 19.9093 15.1015 19.7354C15.3263 19.3126 15.8191 19.1085 16.2769 19.2485C16.4653 19.3061 16.6896 19.4896 17.1381 19.8566C17.3754 20.0507 17.494 20.1478 17.6158 20.2022C17.9074 20.3326 18.2438 20.3158 18.521 20.1571C18.6367 20.0908 18.7451 19.9824 18.9619 19.7656L19.7661 18.9614C19.9828 18.7447 20.0911 18.6364 20.1574 18.5206C20.3163 18.2434 20.333 17.907 20.2026 17.6153C20.1481 17.4936 20.0511 17.375 19.8571 17.1378C19.4902 16.6895 19.3068 16.4653 19.2492 16.277C19.1091 15.8191 19.3133 15.3261 19.7362 15.1014C19.9101 15.009 20.1983 14.9802 20.7748 14.9225C21.0797 14.892 21.2322 14.8768 21.3569 14.8292C21.6553 14.7152 21.8813 14.4654 21.965 14.1571C22 14.0284 22 13.8752 22 13.5687V12.4314C22 12.1248 22 11.9715 21.965 11.8428C21.8813 11.5345 21.6553 11.2849 21.3569 11.1709C21.2323 11.1232 21.0798 11.108 20.7747 11.0775C20.198 11.0198 19.9096 10.991 19.7357 10.8985C19.313 10.6738 19.1088 10.1809 19.2488 9.72311C19.3064 9.53474 19.4899 9.31046 19.8569 8.86189C20.0511 8.62462 20.1481 8.50598 20.2026 8.38416C20.333 8.09257 20.3162 7.75624 20.1575 7.47906C20.0911 7.36327 19.9828 7.25488 19.766 7.0381L18.9619 6.23398C18.7451 6.01721 18.6367 5.90882 18.5209 5.84251C18.2437 5.68377 17.9074 5.667 17.6158 5.79737C17.494 5.85183 17.3754 5.94889 17.1381 6.14302C16.6895 6.51001 16.4653 6.69351 16.2769 6.75111C15.8191 6.89111 15.3262 6.68698 15.1015 6.26424C15.009 6.09032 14.9802 5.80198 14.9225 5.22529Z" fill="url(#paint1_radial_133_1237)" fill-opacity="0.5"/>
<path d="M16.2769 6.75111L16.4524 7.32488L16.2769 6.75111ZM15.1015 6.26424L14.5717 6.54589L15.1015 6.26424ZM18.9619 6.23398L19.3861 5.80972L18.9619 6.23398ZM18.5209 5.84251L18.8191 5.32185L18.5209 5.84251ZM17.6158 5.79737L17.3709 5.24962L17.6158 5.79737ZM20.2026 8.38416L20.7504 8.62905L20.2026 8.38416ZM19.766 7.0381L19.3417 7.46236L19.766 7.0381ZM20.1575 7.47906L19.6368 7.77724L20.1575 7.47906ZM19.7357 10.8985L19.454 11.4283L19.7357 10.8985ZM19.2488 9.72311L18.6751 9.54766L19.2488 9.72311ZM21.965 11.8428L22.544 11.6854L21.965 11.8428ZM21.3569 11.1709L21.5711 10.6104L21.3569 11.1709ZM21.3569 14.8292L21.571 15.3897L21.3569 14.8292ZM21.965 14.1571L22.5441 14.3144L21.965 14.1571ZM19.2492 16.277L19.823 16.1015L19.2492 16.277ZM19.7362 15.1014L19.4546 14.5716L19.7362 15.1014ZM19.7661 18.9614L20.1904 19.3857L19.7661 18.9614ZM20.1574 18.5206L20.6781 18.8189L20.1574 18.5206ZM20.2026 17.6153L20.7503 17.3704L20.2026 17.6153ZM17.6158 20.2022L17.8607 19.6545L17.6158 20.2022ZM18.9619 19.7656L18.5376 19.3414L18.9619 19.7656ZM18.521 20.1571L18.2228 19.6364L18.521 20.1571ZM15.1015 19.7354L15.6313 20.017L15.1015 19.7354ZM16.2769 19.2485L16.1015 19.8223L16.2769 19.2485ZM14.1573 21.965L14.3147 22.544L14.1573 21.965ZM14.8291 21.357L14.2687 21.1428L14.8291 21.357ZM11.1709 21.3569L10.6104 21.5711L11.1709 21.3569ZM11.8428 21.965L12.0001 21.386L11.8428 21.965ZM9.72312 19.2488L9.54768 18.6751L9.72312 19.2488ZM10.8985 19.7357L10.3687 20.0174L10.8985 19.7357ZM7.03805 19.766L7.46231 19.3417L7.03805 19.766ZM7.47903 20.1575L7.18087 20.6782L7.47903 20.1575ZM8.38411 20.2027L8.62899 20.7504L8.38411 20.2027ZM5.79732 17.6159L6.34507 17.8607L5.79732 17.6159ZM6.23395 18.9619L5.80969 19.3862L6.23395 18.9619ZM5.84246 18.5209L5.3218 18.8191L5.84246 18.5209ZM6.26424 15.1015L6.5459 14.5717L6.26424 15.1015ZM6.75111 16.2769L6.17733 16.1014L6.75111 16.2769ZM4.03499 14.1572L4.61399 13.9999L4.03499 14.1572ZM4.64308 14.8291L4.85723 14.2687L4.64308 14.8291ZM4.64299 11.1709L4.8572 11.7313L4.64299 11.1709ZM6.75148 9.7232L6.17769 9.89858L6.75148 9.7232ZM6.2647 10.8984L5.98297 10.3687L6.2647 10.8984ZM6.2341 7.03758L6.65836 7.46184L6.2341 7.03758ZM5.84244 7.47877L6.36315 7.77687L5.84244 7.47877ZM5.79731 8.38364L6.34509 8.13882L5.79731 8.38364ZM8.38415 5.79695L8.13927 6.3447L8.38415 5.79695ZM7.03809 6.23359L6.61382 5.80933L7.03809 6.23359ZM7.47907 5.84209L7.77724 6.36276L7.47907 5.84209ZM10.8986 6.26377L10.3688 5.98219L10.8986 6.26377ZM9.72301 6.75072L9.54748 7.32447L9.72301 6.75072ZM14.1572 4.03499L13.9999 4.614L14.1572 4.03499ZM14.8291 4.64307L15.3896 4.42892L14.8291 4.64307ZM11.8429 4.03496L11.6856 3.45594L11.8429 4.03496ZM11.1708 4.64316L10.6103 4.42906L11.1708 4.64316ZM12.4313 4.6H13.5686V3.4H12.4313V4.6ZM6.65836 7.46184L7.46235 6.65786L6.61382 5.80933L5.80984 6.61332L6.65836 7.46184ZM4.6 13.5686V12.4315H3.4V13.5686H4.6ZM7.46231 19.3417L6.65822 18.5377L5.80969 19.3862L6.61378 20.1903L7.46231 19.3417ZM13.5685 21.4H12.4314V22.6H13.5685V21.4ZM19.3419 18.5371L18.5376 19.3414L19.3862 20.1899L20.1904 19.3857L19.3419 18.5371ZM21.4 12.4314V13.5687H22.6V12.4314H21.4ZM18.5376 6.65824L19.3417 7.46236L20.1902 6.61384L19.3861 5.80972L18.5376 6.65824ZM16.7581 5.67864C16.5284 5.86663 16.3754 5.99154 16.2564 6.07831C16.1336 6.16787 16.0965 6.17884 16.1014 6.17734L16.4524 7.32488C16.6456 7.26578 16.8149 7.1562 16.9635 7.04787C17.1158 6.93673 17.2992 6.7864 17.518 6.60739L16.7581 5.67864ZM14.3255 5.285C14.3536 5.56629 14.377 5.80227 14.4062 5.98861C14.4346 6.17026 14.4768 6.36744 14.5717 6.54589L15.6313 5.98259C15.6337 5.98712 15.6153 5.95317 15.5917 5.803C15.569 5.65752 15.5491 5.46099 15.5196 5.16559L14.3255 5.285ZM16.1014 6.17734C15.9183 6.23334 15.7212 6.15168 15.6313 5.98259L14.5717 6.54589C14.9313 7.22227 15.7198 7.54889 16.4524 7.32488L16.1014 6.17734ZM19.3861 5.80972C19.1962 5.61975 19.0216 5.43784 18.8191 5.32185L18.2227 6.36317C18.2518 6.3798 18.294 6.41466 18.5376 6.65824L19.3861 5.80972ZM17.518 6.60739C17.7846 6.38926 17.8301 6.35877 17.8607 6.34512L17.3709 5.24962C17.1578 5.34488 16.9661 5.50853 16.7581 5.67864L17.518 6.60739ZM18.8191 5.32185C18.3756 5.06787 17.8375 5.04103 17.3709 5.24962L17.8607 6.34512C17.9773 6.29297 18.1119 6.29968 18.2227 6.36317L18.8191 5.32185ZM20.3213 9.24183C20.4914 9.03391 20.6551 8.84214 20.7504 8.62905L19.6549 8.13928C19.6412 8.16983 19.6107 8.21533 19.3926 8.48195L20.3213 9.24183ZM19.3417 7.46236C19.5853 7.70595 19.6202 7.7482 19.6368 7.77724L20.6781 7.18089C20.5621 6.97834 20.3802 6.8038 20.1902 6.61384L19.3417 7.46236ZM20.7504 8.62905C20.9589 8.1625 20.9321 7.62437 20.6781 7.18089L19.6368 7.77724C19.7003 7.88811 19.707 8.02264 19.6549 8.13928L20.7504 8.62905ZM20.8344 10.4804C20.539 10.4509 20.3424 10.431 20.197 10.4083C20.0468 10.3847 20.0128 10.3663 20.0174 10.3687L19.454 11.4283C19.6325 11.5232 19.8297 11.5654 20.0113 11.5938C20.1977 11.623 20.4337 11.6464 20.715 11.6745L20.8344 10.4804ZM19.3926 8.48195C19.2136 8.70075 19.0632 8.88414 18.9521 9.03654C18.8437 9.1851 18.7342 9.35438 18.6751 9.54766L19.8226 9.89856C19.8211 9.90347 19.8321 9.86643 19.9216 9.74361C20.0084 9.62463 20.1333 9.4716 20.3213 9.24183L19.3926 8.48195ZM20.0174 10.3687C19.8483 10.2788 19.7666 10.0817 19.8226 9.89856L18.6751 9.54766C18.4511 10.2802 18.7777 11.0687 19.454 11.4283L20.0174 10.3687ZM22.6 12.4314C22.6 12.1628 22.6052 11.9107 22.544 11.6854L21.386 12.0001C21.3948 12.0324 21.4 12.0869 21.4 12.4314H22.6ZM20.715 11.6745C21.0578 11.7088 21.1115 11.7194 21.1428 11.7313L21.5711 10.6104C21.3531 10.5271 21.1017 10.5072 20.8344 10.4804L20.715 11.6745ZM22.544 11.6854C22.41 11.1923 22.0485 10.7928 21.5711 10.6104L21.1428 11.7313C21.2621 11.7769 21.3525 11.8768 21.386 12.0001L22.544 11.6854ZM20.8345 15.5195C21.1017 15.4928 21.353 15.4729 21.571 15.3897L21.1427 14.2687C21.1115 14.2806 21.0578 14.2912 20.7151 14.3255L20.8345 15.5195ZM21.4 13.5687C21.4 13.9131 21.3948 13.9676 21.386 13.9999L22.5441 14.3144C22.6052 14.0892 22.6 13.8373 22.6 13.5687H21.4ZM21.571 15.3897C22.0485 15.2073 22.4101 14.8077 22.5441 14.3144L21.386 13.9999C21.3525 14.1232 21.2621 14.2231 21.1427 14.2687L21.571 15.3897ZM20.3215 16.7579C20.1336 16.5282 20.0087 16.3753 19.922 16.2564C19.8324 16.1336 19.8215 16.0966 19.823 16.1015L18.6755 16.4526C18.7346 16.6458 18.8441 16.815 18.9524 16.9634C19.0635 17.1158 19.2138 17.2991 19.3927 17.5178L20.3215 16.7579ZM20.7151 14.3255C20.4339 14.3536 20.198 14.377 20.0117 14.4061C19.8301 14.4346 19.633 14.4768 19.4546 14.5716L20.0178 15.6312C20.0132 15.6336 20.0472 15.6152 20.1973 15.5917C20.3427 15.5689 20.5392 15.5491 20.8345 15.5195L20.7151 14.3255ZM19.823 16.1015C19.7669 15.9183 19.8486 15.7211 20.0178 15.6312L19.4546 14.5716C18.778 14.9311 18.4513 15.7199 18.6755 16.4526L19.823 16.1015ZM20.1904 19.3857C20.3803 19.1958 20.5621 19.0213 20.6781 18.8189L19.6368 18.2224C19.6202 18.2514 19.5853 18.2937 19.3419 18.5371L20.1904 19.3857ZM19.3927 17.5178C19.6107 17.7843 19.6412 17.8297 19.6549 17.8603L20.7503 17.3704C20.6551 17.1574 20.4915 16.9657 20.3215 16.7579L19.3927 17.5178ZM20.6781 18.8189C20.9322 18.3753 20.959 17.837 20.7503 17.3704L19.6549 17.8603C19.707 17.9769 19.7003 18.1115 19.6368 18.2224L20.6781 18.8189ZM16.7582 20.321C16.9661 20.4911 17.1579 20.6547 17.3709 20.75L17.8607 19.6545C17.8302 19.6408 17.7847 19.6103 17.5181 19.3922L16.7582 20.321ZM18.5376 19.3414C18.2941 19.5849 18.2518 19.6198 18.2228 19.6364L18.8191 20.6778C19.0217 20.5618 19.1962 20.3798 19.3862 20.1899L18.5376 19.3414ZM17.3709 20.75C17.8375 20.9586 18.3756 20.9317 18.8191 20.6778L18.2228 19.6364C18.1119 19.6999 17.9774 19.7066 17.8607 19.6545L17.3709 20.75ZM15.5196 20.8342C15.5491 20.5387 15.569 20.3422 15.5918 20.1966C15.6153 20.0464 15.6337 20.0125 15.6313 20.017L14.5717 19.4537C14.4769 19.6322 14.4347 19.8294 14.4062 20.011C14.377 20.1974 14.3537 20.4334 14.3255 20.7148L15.5196 20.8342ZM17.5181 19.3922C17.2993 19.2132 17.1159 19.0629 16.9635 18.9517C16.8149 18.8434 16.6457 18.7338 16.4524 18.6747L16.1015 19.8223C16.0966 19.8208 16.1336 19.8317 16.2564 19.9213C16.3754 20.0081 16.5284 20.133 16.7582 20.321L17.5181 19.3922ZM15.6313 20.017C15.7212 19.8479 15.9183 19.7663 16.1015 19.8223L16.4524 18.6747C15.7199 18.4507 14.9313 18.7773 14.5717 19.4537L15.6313 20.017ZM13.5685 22.6C13.8372 22.6 14.0894 22.6052 14.3147 22.544L13.9999 21.386C13.9676 21.3948 13.9131 21.4 13.5685 21.4V22.6ZM14.3255 20.7148C14.2912 21.0578 14.2806 21.1115 14.2687 21.1428L15.3896 21.5712C15.4729 21.3531 15.4928 21.1017 15.5196 20.8342L14.3255 20.7148ZM14.3147 22.544C14.8078 22.41 15.2071 22.0485 15.3896 21.5712L14.2687 21.1428C14.223 21.2621 14.1232 21.3525 13.9999 21.386L14.3147 22.544ZM10.4804 20.8344C10.5072 21.1017 10.5271 21.3531 10.6104 21.5711L11.7313 21.1428C11.7194 21.1115 11.7088 21.0578 11.6745 20.715L10.4804 20.8344ZM12.4314 21.4C12.0869 21.4 12.0324 21.3948 12.0001 21.386L11.6854 22.544C11.9107 22.6052 12.1628 22.6 12.4314 22.6V21.4ZM10.6104 21.5711C10.7928 22.0485 11.1923 22.41 11.6854 22.544L12.0001 21.386C11.8768 21.3525 11.7769 21.2621 11.7313 21.1428L10.6104 21.5711ZM9.24181 20.3213C9.47159 20.1333 9.62462 20.0084 9.74361 19.9217C9.86643 19.8321 9.90347 19.8211 9.89856 19.8226L9.54768 18.6751C9.3544 18.7342 9.1851 18.8437 9.03654 18.9521C8.88414 19.0632 8.70073 19.2136 8.48193 19.3926L9.24181 20.3213ZM11.6745 20.715C11.6464 20.4337 11.623 20.1977 11.5938 20.0113C11.5654 19.8297 11.5231 19.6325 11.4283 19.454L10.3687 20.0174C10.3663 20.0128 10.3847 20.0468 10.4083 20.197C10.431 20.3424 10.4509 20.539 10.4804 20.8344L11.6745 20.715ZM9.89856 19.8226C10.0817 19.7666 10.2788 19.8483 10.3687 20.0174L11.4283 19.454C11.0687 18.7777 10.2802 18.4511 9.54768 18.6751L9.89856 19.8226ZM6.61378 20.1903C6.80376 20.3803 6.9783 20.5622 7.18087 20.6782L7.7772 19.6368C7.74816 19.6202 7.70591 19.5853 7.46231 19.3417L6.61378 20.1903ZM8.48193 19.3926C8.21529 19.6108 8.16978 19.6412 8.13923 19.6549L8.62899 20.7504C8.84209 20.6551 9.03387 20.4915 9.24181 20.3213L8.48193 19.3926ZM7.18087 20.6782C7.62434 20.9321 8.16245 20.959 8.62899 20.7504L8.13923 19.6549C8.0226 19.707 7.88807 19.7003 7.7772 19.6368L7.18087 20.6782ZM5.67862 16.7582C5.50849 16.9661 5.34484 17.1579 5.24957 17.371L6.34507 17.8607C6.35873 17.8302 6.38922 17.7847 6.60737 17.518L5.67862 16.7582ZM6.65822 18.5377C6.41462 18.2941 6.37976 18.2518 6.36313 18.2228L5.3218 18.8191C5.43779 19.0217 5.61972 19.1962 5.80969 19.3862L6.65822 18.5377ZM5.24957 17.371C5.04099 17.8375 5.06783 18.3756 5.3218 18.8191L6.36313 18.2228C6.29964 18.1119 6.29293 17.9774 6.34507 17.8607L5.24957 17.371ZM5.16559 15.5196C5.46098 15.5491 5.65752 15.569 5.803 15.5917C5.95317 15.6153 5.98712 15.6337 5.98259 15.6313L6.5459 14.5717C6.36744 14.4768 6.17026 14.4346 5.98861 14.4062C5.80226 14.377 5.56628 14.3536 5.28499 14.3255L5.16559 15.5196ZM6.60737 17.518C6.78639 17.2992 6.93672 17.1159 7.04786 16.9635C7.1562 16.8149 7.26578 16.6456 7.32488 16.4523L6.17733 16.1014C6.17883 16.0965 6.16786 16.1336 6.0783 16.2564C5.99153 16.3754 5.86661 16.5284 5.67862 16.7582L6.60737 17.518ZM5.98259 15.6313C6.15168 15.7212 6.23333 15.9183 6.17733 16.1014L7.32488 16.4523C7.54888 15.7198 7.22226 14.9313 6.5459 14.5717L5.98259 15.6313ZM3.4 13.5686C3.4 13.8372 3.39478 14.0893 3.45598 14.3145L4.61399 13.9999C4.60522 13.9676 4.6 13.9131 4.6 13.5686H3.4ZM5.28499 14.3255C4.94222 14.2912 4.88849 14.2806 4.85723 14.2687L4.42892 15.3896C4.64696 15.4729 4.89827 15.4928 5.16559 15.5196L5.28499 14.3255ZM3.45598 14.3145C3.58998 14.8077 3.95152 15.2072 4.42892 15.3896L4.85723 14.2687C4.73788 14.2231 4.6475 14.1232 4.61399 13.9999L3.45598 14.3145ZM5.1657 10.4804C4.89829 10.5072 4.64689 10.5271 4.42879 10.6104L4.8572 11.7313C4.88846 11.7194 4.94221 11.7088 5.2851 11.6745L5.1657 10.4804ZM4.6 12.4315C4.6 12.0869 4.60522 12.0324 4.614 12.0001L3.45602 11.6853C3.39478 11.9106 3.4 12.1628 3.4 12.4315H4.6ZM4.42879 10.6104C3.9515 10.7928 3.59004 11.1923 3.45602 11.6853L4.614 12.0001C4.64751 11.8768 4.73787 11.777 4.8572 11.7313L4.42879 10.6104ZM5.67877 9.24158C5.86684 9.47144 5.99182 9.62454 6.07862 9.74356C6.16822 9.86643 6.17919 9.90349 6.17769 9.89858L7.32528 9.54782C7.26618 9.35447 7.15656 9.18512 7.04819 9.03651C6.93701 8.88405 6.78661 8.70058 6.60752 8.48169L5.67877 9.24158ZM5.2851 11.6745C5.56649 11.6463 5.80255 11.623 5.98896 11.5938C6.17067 11.5653 6.36792 11.5231 6.54642 11.4282L5.98297 10.3687C5.9875 10.3663 5.95355 10.3847 5.80332 10.4082C5.6578 10.431 5.46119 10.4509 5.1657 10.4804L5.2851 11.6745ZM6.17769 9.89858C6.23365 10.0817 6.15202 10.2788 5.98297 10.3687L6.54642 11.4282C7.2226 11.0686 7.54914 10.2802 7.32528 9.54782L6.17769 9.89858ZM5.80984 6.61332C5.61978 6.80338 5.43777 6.97799 5.32174 7.18066L6.36315 7.77687C6.37978 7.74782 6.41465 7.70555 6.65836 7.46184L5.80984 6.61332ZM6.60752 8.48169C6.38926 8.21492 6.35875 8.16939 6.34509 8.13882L5.24953 8.62845C5.34481 8.84166 5.50856 9.03353 5.67877 9.24158L6.60752 8.48169ZM5.32174 7.18066C5.06789 7.62405 5.04106 8.16201 5.24953 8.62845L6.34509 8.13882C6.29298 8.02221 6.29968 7.88772 6.36315 7.77687L5.32174 7.18066ZM9.24192 5.67831C9.03394 5.50815 8.84213 5.34447 8.62903 5.2492L8.13927 6.3447C8.16982 6.35836 8.21535 6.38886 8.48203 6.60706L9.24192 5.67831ZM7.46235 6.65786C7.70595 6.41425 7.7482 6.37939 7.77724 6.36276L7.18091 5.32142C6.97834 5.43742 6.8038 5.61935 6.61382 5.80933L7.46235 6.65786ZM8.62903 5.2492C8.16249 5.04062 7.62438 5.06746 7.18091 5.32142L7.77724 6.36276C7.88811 6.29927 8.02264 6.29256 8.13927 6.3447L8.62903 5.2492ZM10.4805 5.16547C10.4509 5.46076 10.4311 5.65723 10.4083 5.80266C10.3848 5.95278 10.3664 5.98672 10.3688 5.98219L11.4284 6.54536C11.5232 6.36695 11.5654 6.16983 11.5939 5.98825C11.623 5.80197 11.6464 5.56607 11.6745 5.28488L10.4805 5.16547ZM8.48203 6.60706C8.7008 6.78605 8.88416 6.93636 9.03652 7.04748C9.18504 7.15579 9.35427 7.26536 9.54748 7.32447L9.89854 6.17697C9.90346 6.17847 9.86643 6.1675 9.74362 6.07794C9.62466 5.99118 9.47165 5.86627 9.24192 5.67831L8.48203 6.60706ZM10.3688 5.98219C10.2789 6.15133 10.0817 6.23301 9.89854 6.17697L9.54748 7.32447C10.2801 7.54862 11.0689 7.22192 11.4284 6.54536L10.3688 5.98219ZM13.5686 4.6C13.9131 4.6 13.9676 4.60522 13.9999 4.614L14.3145 3.45598C14.0893 3.39478 13.8373 3.4 13.5686 3.4V4.6ZM15.5196 5.16559C15.4928 4.89827 15.4729 4.64696 15.3896 4.42892L14.2687 4.85723C14.2806 4.88849 14.2912 4.94222 14.3255 5.285L15.5196 5.16559ZM13.9999 4.614C14.1232 4.6475 14.2231 4.73788 14.2687 4.85723L15.3896 4.42892C15.2072 3.95152 14.8077 3.58998 14.3145 3.45598L13.9999 4.614ZM12.4313 3.4C12.1627 3.4 11.9108 3.39478 11.6856 3.45594L12.0001 4.61399C12.0324 4.60522 12.0869 4.6 12.4313 4.6V3.4ZM11.6745 5.28488C11.7088 4.94223 11.7194 4.88851 11.7313 4.85726L10.6103 4.42906C10.5271 4.64703 10.5072 4.89825 10.4805 5.16547L11.6745 5.28488ZM11.6856 3.45594C11.1923 3.58992 10.7927 3.95154 10.6103 4.42906L11.7313 4.85726C11.7769 4.73789 11.8768 4.64748 12.0001 4.61399L11.6856 3.45594Z" fill="url(#paint2_linear_133_1237)"/>
</g>
<g filter="url(#filter1_bi_133_1237)">
<circle cx="13" cy="13" r="3" stroke="#FBFFFE" stroke-opacity="0.3" stroke-width="1.5"/>
</g>
<defs>
<filter id="filter0_b_133_1237" x="-0.600098" y="-0.600098" width="27.2002" height="27.2002" filterUnits="userSpaceOnUse" color-interpolation-filters="sRGB">
<feFlood flood-opacity="0" result="BackgroundImageFix"/>
<feGaussianBlur in="BackgroundImageFix" stdDeviation="2"/>
<feComposite in2="SourceAlpha" operator="in" result="effect1_backgroundBlur_133_1237"/>
<feBlend mode="normal" in="SourceGraphic" in2="effect1_backgroundBlur_133_1237" result="shape"/>
</filter>
<filter id="filter1_bi_133_1237" x="5.25" y="5.25" width="15.5" height="15.5" filterUnits="userSpaceOnUse" color-interpolation-filters="sRGB">
<feFlood flood-opacity="0" result="BackgroundImageFix"/>
<feGaussianBlur in="BackgroundImageFix" stdDeviation="2"/>
<feComposite in2="SourceAlpha" operator="in" result="effect1_backgroundBlur_133_1237"/>
<feBlend mode="normal" in="SourceGraphic" in2="effect1_backgroundBlur_133_1237" result="shape"/>
<feColorMatrix in="SourceAlpha" type="matrix" values="0 0 0 0 0 0 0 0 0 0 0 0 0 0 0 0 0 0 127 0" result="hardAlpha"/>
<feOffset/>
<feGaussianBlur stdDeviation="0.75"/>
<feComposite in2="hardAlpha" operator="arithmetic" k2="-1" k3="1"/>
<feColorMatrix type="matrix" values="0 0 0 0 1 0 0 0 0 1 0 0 0 0 1 0 0 0 1 0"/>
<feBlend mode="normal" in2="shape" result="effect2_innerShadow_133_1237"/>
</filter>
<linearGradient id="paint0_linear_133_1237" x1="5.5" y1="3.5" x2="12.5" y2="13.5" gradientUnits="userSpaceOnUse">
<stop stop-color="#027CEF"/>
<stop offset="1" stop-color="#027CEF"/>
</linearGradient>
<radialGradient id="paint1_radial_133_1237" cx="0" cy="0" r="1" gradientUnits="userSpaceOnUse" gradientTransform="translate(13 13.45) rotate(90) scale(8.55)">
<stop stop-color="#00B865"/>
<stop offset="1" stop-color="#00B865" stop-opacity="0.8"/>
</radialGradient>
<linearGradient id="paint2_linear_133_1237" x1="13" y1="4" x2="13" y2="22" gradientUnits="userSpaceOnUse">
<stop stop-color="white" stop-opacity="0.1"/>
<stop offset="0.51" stop-color="white" stop-opacity="0.1"/>
<stop offset="1" stop-opacity="0.01"/>
</linearGradient>
</defs>
</svg>
